<?xml version="1.0" encoding="utf-8"?>
<!-- Generator: Adobe Illustrator 23.0.2, SVG Export Plug-In . SVG Version: 6.00 Build 0)  -->
<svg version="1.1" id="Layer_1" xmlns="http://www.w3.org/2000/svg" xmlns:xlink="http://www.w3.org/1999/xlink" x="0px" y="0px"
	 viewBox="0 0 360 360" style="enable-background:new 0 0 360 360;" xml:space="preserve">
<style type="text/css">
	.st0{fill:none;stroke:#000000;stroke-width:5;stroke-miterlimit:10;}
	.st1{fill:none;stroke:#000000;stroke-miterlimit:10;}
</style>
<line class="st0" x1="155.9" y1="137.5" x2="240.4" y2="34.3"/>
<line class="st0" x1="232.7" y1="199.6" x2="317.2" y2="96.4"/>
<line class="st0" x1="315.9" y1="98" x2="237.5" y2="34.8"/>
<line class="st1" x1="190.8" y1="172.2" x2="276.5" y2="67.6"/>
<line class="st1" x1="294.4" y1="125.1" x2="216" y2="62"/>
<line class="st1" x1="273.4" y1="151.2" x2="195" y2="88"/>
<line class="st1" x1="252.9" y1="175.8" x2="174.5" y2="112.6"/>
<line class="st1" x1="213.7" y1="182.3" x2="155.6" y2="135.6"/>
<g>
	<g>
		<path data-async data-start="0" data-duration="200"
class="st1" d="M241.5,188.7c-5.1-2.5-8.4-5.6-14.2-6.5c-6.5-1-12.7-1.9-18.9-4c-6.1-2.1-12.1-4.6-18-7.2c-6.4-2.9-10.6-6.2-14.4-12
			c-2.7-4.1-5.6-7.1-9.5-10c-2.5-1.9-4.2-3.6-5.8-6.3c-1.2-2.1-2.2-4.2-4.2-5.7c-3.4-2.6-7.5-1.5-11.3-0.5
			c-4.8,1.3-9.7,2.9-13.6,6.1c-4.2,3.4-6.4,8.5-10.4,12c-4.3,3.7-9.9,5.2-13.4,9.9c-6.5,8.7,1.3,16.3,9,20c2.7,1.3,5.4,2.4,7.7,4.4
			c1.8,1.6,3.1,3.7,5,5.2c3.5,2.8,8,4,12.5,4.4c5.9,0.5,11.8-0.8,17.8-0.5c6.7,0.3,12.8,3.1,19.6,2.3c7.3-0.9,14-2.5,21.4-2
			c7.8,0.5,15.5,2.3,23.1,3.9c4.7,1,10.4,2.4,14.6-0.9c3.2-2.5,4.2-6.6,2.2-10.1c-1.5-2.8-5.9-0.3-4.3,2.5c3.9,7.1-12.6,3.4-14.8,3
			c-5.1-1.1-10.2-2.1-15.3-2.7c-4.9-0.6-9.8-0.9-14.7-0.5c-5.2,0.4-10.4,2.3-15.7,2.2c-4.9-0.1-9.4-2-14.3-2.5
			c-5.6-0.5-11.2,0.5-16.8,0.5c-4.5,0-9.4-0.8-12.9-4c-3.3-3-5.6-6-9.7-8.1c-3.8-1.9-9-3.4-11.2-7.5c-3.3-6.3,5-10.2,9.2-12.8
			c8.1-4.9,11.3-14.5,20.4-18c4.4-1.7,11-4.4,14.4-0.3c2.5,3,3.5,6.2,6.7,8.7c3.9,3.2,7.1,5.7,10,9.9c2.3,3.5,4.5,6.7,7.9,9.2
			c7.7,5.7,18.4,9.3,27.4,12.3c5,1.7,10.1,2.9,15.3,3.6c3.5,0.5,7,0.6,10.2,2.4c2.2,1.2,4.2,2.8,6.5,4
			C241.8,194.4,244.4,190.1,241.5,188.7L241.5,188.7z"/>
	</g>
</g>
<g>
	<g>
		<path data-async data-start="0" data-duration="200"
class="st1" d="M228.1,200.2c-8.9,3.7-12,12.3-16.8,20c-6.9,11-17,20.5-25.5,30.2c-8.6,9.8-18,19.3-25.9,29.8c-6.6,8.7-7.9,19.5-6.9,30.1
			c0.2,2.3,1.4,6.4-2.1,5.5c-2.6-0.7-5.6-3.5-7.5-5.2c-4.5-4-7.5-9.2-11.6-13.5c-8-8.3-18.9-12.9-27.2-21
			c-8.4-8.2-16.2-16.3-25.4-23.6c-8.2-6.4-16.9-13-21.9-22.2c-0.4-0.8-2.1-3.3-1.9-4c0.1-0.5,4.3-1.4,5.2-1.8
			c2.9-1.1,5.8-2.3,8.6-3.7c5.6-2.8,10.7-6.3,15.6-10.2c10.4-8.3,19.2-18.4,27.9-28.4c2.1-2.4-1.4-6-3.5-3.5
			c-8.3,9.6-16.7,19.3-26.6,27.4c-4.9,4-10.2,7.6-15.8,10.4c-3,1.5-6.1,2.7-9.2,3.8c-2.1,0.8-5.3,1.2-6.6,3.4c-1.8,3,1,7.2,2.5,9.7
			c2.7,4.8,6.4,8.9,10.4,12.7c8.4,7.9,18.3,14.2,26.5,22.3c4.3,4.3,8.3,8.9,12.7,13c4.4,4.1,9.4,7.4,14.4,10.7
			c5.4,3.6,10.2,7.3,14.2,12.4c4,5,7.8,9.8,13.2,13.4c3,2,7.4,5.1,10.9,2.4c3.1-2.4,2.5-6.7,2.2-10.1c-0.6-6.4-0.5-12.9,1.6-19.1
			c2.5-7.2,8.2-12.7,13.2-18.3c10.7-12.2,21.4-24.4,32.1-36.5c4.5-5.1,8.9-10.2,12.3-16.1c3.2-5.6,6-12.6,12.4-15.3
			C232.3,203.7,231.1,198.9,228.1,200.2L228.1,200.2z"/>
	</g>
</g>
<g>
	<g>
		<path data-async data-start="0" data-duration="200"
class="st1" d="M97.7,221c7.3,6.8,17.7,9.9,25.7,15.9c9,6.8,11,18,12.7,28.5c0.5,3.2,5.3,1.8,4.8-1.3c-1.6-9.9-3.6-21.3-11.2-28.5
			c-3.7-3.5-8.1-6.2-12.4-8.7c-5.2-3.1-11.5-5.3-16-9.5C98.8,215.2,95.3,218.8,97.7,221L97.7,221z"/>
	</g>
</g>
<g>
	<g>
		<path data-async data-start="0" data-duration="200"
class="st1" d="M121.5,196.3c-0.7,8.9,7.4,16.9,12.7,23.2c3.2,3.8,6.4,7.5,9.5,11.3c2.6,3.1,5.2,5.7,9.2,6.6c3.1,0.7,4.5-4.1,1.3-4.8
			c-3.7-0.8-5.8-3.8-8-6.6c-2.4-2.9-4.9-5.8-7.4-8.7c-4.7-5.5-13-13.3-12.4-21C126.7,193.1,121.7,193.1,121.5,196.3L121.5,196.3z"/>
	</g>
</g>
<g>
	<g>
		<path data-async data-start="0" data-duration="200"
class="st1" d="M124.5,236.5c3.8-1.9,6.9-4.8,10.6-6.8c3-1.7,5.7-3.5,5.6-7.3c-0.1-3.2-5.1-3.2-5,0c0,1.7-1.9,2.3-3.1,2.9
			c-1.2,0.7-2.3,1.5-3.4,2.3c-2.3,1.7-4.6,3.2-7.1,4.5C119.1,233.6,121.6,237.9,124.5,236.5L124.5,236.5z"/>
	</g>
</g>
<g>
	<g>
		<path data-async data-start="0" data-duration="200"
class="st1" d="M132.7,198.6c2.6,2.3,5.6,3.9,8,6.3c2.6,2.5,4.6,5.5,6.7,8.3c4.3,5.8,8.1,12.6,12.9,17.9c4.1,4.5,7.9-1.1,10.8-4.2
			c5.4-5.7,11.1-11.1,17.1-16.3c2.4-2.1-1.1-5.6-3.5-3.5c-3.9,3.4-7.7,6.8-11.4,10.5c-1.7,1.7-3.4,3.4-5.1,5.2
			c-1.4,1.5-3.5,4.9-5.7,5.2c0.8,0.2,1.6,0.4,2.4,0.6c-3-2.9-5.2-7.1-7.7-10.4c-2.4-3.3-4.8-6.5-7.2-9.7c-1.7-2.2-3.3-4.5-5.3-6.6
			c-2.6-2.6-5.8-4.4-8.6-6.8C133.8,193,130.3,196.5,132.7,198.6L132.7,198.6z"/>
	</g>
</g>
<g>
	<g>
		<path data-async data-start="0" data-duration="200"
class="st1" d="M152,212.1c2.6-1.8,5.1-3.8,7.4-5.9c2.4-2.2-1.2-5.7-3.5-3.5c-2,1.8-4.2,3.6-6.4,5.1c-1.1,0.8-1.6,2.2-0.9,3.4
			C149.2,212.3,150.9,212.9,152,212.1L152,212.1z"/>
	</g>
</g>
<g>
	<g>
		<path data-async data-start="0" data-duration="200"
class="st1" d="M69.3,221.6c3.6,3.8,6.6,8.4,10.6,11.8c1.6,1.4,3.5,1.9,5.3,3c2.7,1.7,4.1,4.4,5.6,7.1c2.3,4.1,4.8,6.7,8.2,9.9
			c2.9,2.6,4.3,7,7.5,9.2c0.4,0.3,1,0.4,1.4,0.7c1.8,1.2,3.3,2.5,4.6,4.5c0.9,1.3,1.2,2.6,2.5,3.6c1.2,0.9,2.6,1.2,4,1.6
			c2.7,0.9,5.1,2,7.5,3.5c4.7,3.1,9,6.7,13.6,9.9c1.7,1.2,3.5,2.3,5.5,3c2.7,0.8,5.6,0.1,8,1.9c1.3,1,2.5-1.2,1.3-2.2
			c-3.6-2.6-8.4-1.6-12.3-4c-4.7-2.9-8.9-6.6-13.5-9.8c-2-1.4-4.1-2.8-6.4-3.7c-2.1-0.9-4-1.1-5.9-2.5c-2-1.6-2.1-3.3-3.4-5.2
			c-1-1.4-2.1-1.8-3.6-2.5c-4.2-2.2-6.1-7.1-9.6-10.3c-3.9-3.5-6-7-8.6-11.3c-2.5-4.2-5.6-5-9.4-7.8c-4.2-3.1-7.4-8.2-11-12.1
			C70,218.7,68.2,220.4,69.3,221.6L69.3,221.6z"/>
	</g>
</g>
</svg>
