<?xml version="1.0" encoding="utf-8"?>
<!-- Generator: Adobe Illustrator 23.0.2, SVG Export Plug-In . SVG Version: 6.00 Build 0)  -->
<svg version="1.1" id="Layer_1" xmlns="http://www.w3.org/2000/svg" xmlns:xlink="http://www.w3.org/1999/xlink" x="0px" y="0px"
	 viewBox="0 0 360 360" style="enable-background:new 0 0 360 360;" xml:space="preserve">
<style type="text/css">
	.st0{fill:none;stroke:#000000;stroke-width:4;stroke-miterlimit:10;}
</style>
<circle class="st0" cx="57.1" cy="95.9" r="23.5"/>
<circle class="st0" cx="235.3" cy="174.1" r="17.9"/>
<ellipse class="st0" cx="160.2" cy="92.6" rx="21.8" ry="27.7"/>
<ellipse class="st0" cx="309" cy="117.4" rx="27.7" ry="24.5"/>
<path class="st0" d="M93.2,271.8H21V144.9c0-9.9,8.1-18,18-18h36.1c9.9,0,18,8.1,18,18V271.8z"/>
<path class="st0" d="M203.8,271.8h-85.4V144.9c0-9.9,8.1-18,18-18h49.4c9.9,0,18,8.1,18,18V271.8z"/>
<path class="st0" d="M351,273.3h-84V168.7c0-9.9,8.1-18,18-18h48c9.9,0,18,8.1,18,18V273.3z"/>
<path class="st0" d="M259.7,273.8h-48.8v-56.5c0-9.9,8.1-18,18-18h12.8c9.9,0,18,8.1,18,18V273.8z"/>
<g>
	<g>
		<path data-async data-start="0" data-duration="200"
class="st1" d="M187.9,322.5c0,4.1,0.7,10.4-2.5,13.4c1.4,0.6,2.8,1.2,4.3,1.8c0.5-4.5,3.1-9.2,7.2-11.4c7.9-4.3,6.9,5.6,7.2,9.9
			c0.2,3.2,4.9,3.2,5,0c0.2-6.5,2.3-11.5,9.5-12c3.1-0.2,4.1,0.2,4.7,3.5c0.5,2.9,0.2,6.1,0,9.1c-0.2,3.2,4.8,3.2,5,0
			c0.3-4.4,1.1-11-1-15c-1.7-3.3-7-2.9-10.1-2.5c-9.6,1.1-12.9,8.1-13.1,16.9c1.7,0,3.3,0,5,0c-0.4-6.4-0.1-18.3-10-16.2
			c-8.2,1.8-13.4,9.8-14.4,17.7c-0.3,2.3,2.8,3.1,4.3,1.8c4.5-4.2,4.1-11.3,4-16.9C192.9,319.3,187.9,319.3,187.9,322.5L187.9,322.5
			z"/>
	</g>
</g>
<g>
	<g>
		<path data-async data-start="0" data-duration="200"
class="st0" d="M236.5,334.6c4,0.7,7.2,2.6,11.1,0.2c2.7-1.8,4.4-5,3.8-8.3c-1.7-8.7-11.8-7.9-17.2-3.2c-13.3,11.6,11.9,32.5,22.3,20.2
			c2.1-2.4-1.4-6-3.5-3.5c-4.8,5.6-15-0.7-17-6.2c-1.5-4.2,2.8-10.5,7.9-9.1c2.8,0.8,3.5,4.8,0.7,6.2c-2,1-4.8-0.6-6.7-1
			C234.7,329.2,233.3,334,236.5,334.6L236.5,334.6z"/>
	</g>
</g>
<g>
	<g>
		<path data-async data-start="0" data-duration="200"
class="st0" d="M232.6,309.9c3-8.6,3.8-16.1,0.6-24.7c-1.1-3-5.9-1.7-4.8,1.3c1.3,3.6,2.5,7,2.1,10.9c-0.3,3.7-1.5,7.6-2.7,11.1
			C226.7,311.6,231.6,312.9,232.6,309.9L232.6,309.9z"/>
	</g>
</g>
<g>
	<g>
		<path data-async data-start="0" data-duration="200"
class="st0" d="M222.4,300.2c3.4-0.9,6.4-2.8,8.6-5.7c1-1.3,1.8-2.8,2.3-4.4c0.4-1.1,0.3-4.2,0.9-5c-0.7,0.4-1.4,0.8-2.2,1.2
			c0.1,0,3.8,4.9,4.6,5.9c2,2.4,4,4.9,6,7.3c2,2.5,5.6-1.1,3.5-3.5c-2.7-3.3-5.4-6.6-8.1-9.9c-1.8-2.2-3-4.4-5.9-4.7
			c-0.9-0.1-1.7,0.6-2.2,1.2c-1.3,1.9-0.7,4.3-1.5,6.4c-1.3,3.3-3.9,5.4-7.2,6.3C218,296.2,219.3,301.1,222.4,300.2L222.4,300.2z"/>
	</g>
</g>
<g>
	<g>
		<path data-async data-start="0" data-duration="200"
class="st0" d="M140.8,16.3c-3.2,1.5-7.4,4.4-8.3,8c-0.9,3.8,2.5,5.5,5.7,5.7c9.9,0.5,11.4-12.6,10.7-20c-1.6,0.2-3.3,0.4-4.9,0.7
			c1.7,6.3-0.1,12.9,3.2,18.8c1.6,2.8,5.9,0.3,4.3-2.5c-3-5.2-1.2-11.9-2.7-17.6c-0.7-2.6-5.2-2.2-4.9,0.7
			c0.4,3.9,0.5,10.8-2.4,13.9c-0.9,1-1.9,1-3.3,1.1c-1.5,0.1-0.6,0-0.1-0.6c1.5-1.7,3.1-2.8,5.2-3.8C146.2,19.3,143.7,15,140.8,16.3
			L140.8,16.3z"/>
	</g>
</g>
<g>
	<g>
		<path data-async data-start="0" data-duration="200"
class="st0" d="M166.1,21.2c-2.1-1.4-4.9-0.9-6.7,0.8c-2.2,2.1-2.3,5.4-1.9,8.2c0.4,2.8,2.4,4.7,5.3,4c3.3-0.8,3.6-3.9,5.3-6.3
			c-1.4,0-2.9,0-4.3,0c1,1.9-0.3,4.7,0.2,6.8c0.5,2,1.8,3.3,3.7,4c3.1,1,4.4-3.8,1.3-4.8c-0.8-0.3-0.1-3.5-0.1-3.9
			c0.1-1.7-0.1-3-0.9-4.5c-0.9-1.8-3.3-1.4-4.3,0c-0.6,0.8-0.9,1.6-1.3,2.5c-0.2,0.5-0.4,1-0.7,1.4c0.6,0.8,0.8,0.9,0.6,0.3
			c0.2-0.4-0.6-5.1,1.2-4C166.3,27.3,168.8,22.9,166.1,21.2L166.1,21.2z"/>
	</g>
</g>
<g>
	<g>
		<path data-async data-start="0" data-duration="200"
class="st0" d="M185.3,29.3c-8.4-2.6-14.2,10.1-5.6,12.3c4.1,1,8.5,0.1,10.6-3.7c2.6-4.6,1.7-10.6,5.1-14.7c-1.4-0.4-2.8-0.7-4.2-1.1
			c1.8,9.5-3.5,18.6-2.5,28.1c0.3,3.2,5.4,3.2,5,0c-1.1-10,4.1-19.4,2.3-29.5c-0.3-1.8-3-2.5-4.2-1.1c-2.1,2.5-3.1,5.2-3.9,8.4
			c-0.4,1.8-0.7,3.7-1.2,5.4c-0.3,1.6-1.2,2.7-2.7,3.4c-2.6,0.6-2.7-0.3-0.1-2.6C187,35,188.3,30.2,185.3,29.3L185.3,29.3z"/>
	</g>
</g>
<g>
	<g>
		<path data-async data-start="0" data-duration="200"
class="st0" d="M204.9,49.8c0.5,4,1.5,9.4,0,13.3c-1.6,4.4-7.3,7.1-11.1,9.3c-2.8,1.6-0.3,5.9,2.5,4.3c4.5-2.6,10.1-5.6,12.6-10.3
			c2.6-4.8,1.6-11.4,1-16.6C209.6,46.6,204.6,46.6,204.9,49.8L204.9,49.8z"/>
	</g>
</g>
<g>
	<g>
		<path data-async data-start="0" data-duration="200"
class="st0" d="M191,64c0.4,2.8,0.3,5.5-0.3,8.3c-0.5,2-1.4,4.1-0.8,6.2c1.2,4.6,6.3,5.2,10.2,4.8c3.2-0.3,3.2-5.3,0-5
			c-1.6,0.2-4.7,0.8-5.4-1.4c-0.3-1,0.9-3.4,1.1-4.4c0.5-2.8,0.6-5.7,0.2-8.5C195.6,60.9,190.6,60.8,191,64L191,64z"/>
	</g>
</g>
<g>
	<g>
		<path data-async data-start="0" data-duration="200"
class="st0" d="M272.2,32.7c-0.2,3.9,0.3,7.5,1.6,11.2c0.9,2.5,5.2,2.3,4.9-0.7c-0.2-2-0.5-4.3,0.3-6.3c0.4-1.5,1.4-2.5,2.8-3.2
			c0.5,1.5,0.6,3.1,0.5,4.6c-0.1,2.7,3.3,3.1,4.7,1.3c1.7-2.4,3.2-4.9,4.3-7.6c0.4-0.8,0.7-3.1,2.3-2.3c1.1,0.6,1.3,4.5,1.3,5.4
			c0.1,3.2,5.1,3.2,5,0c-0.2-4.1-2-11.9-7.6-11.4c-2.2,0.2-3.4,1.7-4.3,3.5c-1.9,3.4-3,6.8-5.3,10c1.6,0.4,3.1,0.8,4.7,1.3
			c0.1-4.7-1.9-11.6-7.9-9c-5.4,2.3-6.1,8.7-5.7,13.8c1.6-0.2,3.3-0.4,4.9-0.7c-1.2-3.3-1.6-6.4-1.4-9.8
			C277.4,29.4,272.4,29.5,272.2,32.7L272.2,32.7z"/>
	</g>
</g>
<g>
	<g>
		<path data-async data-start="0" data-duration="200"
class="st0" d="M309.3,25.4c-3.5,2.3-6.1,5.9-5.7,10.3c0.4,4,3.5,7.7,7.7,7.8c4.1,0.2,7.8-3,9-6.7c1.3-4.2-0.5-9.4-5.2-10.1
			c-3.1-0.5-4.5,4.3-1.3,4.8c4.4,0.7,0.7,8.6-3.2,6.8c-4.1-1.8-1.2-6.9,1.3-8.5C314.5,28,312,23.7,309.3,25.4L309.3,25.4z"/>
	</g>
</g>
<g>
	<g>
		<path data-async data-start="0" data-duration="200"
class="st0" d="M320.4,30.8c-0.2-0.1-0.4,9.2-0.4,9.9c0,2.7,3.2,3.1,4.7,1.3c1.3-1.7,1.9-3.6,2.2-5.7c0.1-1-0.1-4,0.6-4.4
			c0.8,0.1,1.5,0.2,2.3,0.3c0.4,1.2,0.5,2.5,0.5,3.8c0,2.9,4,3.2,4.9,0.7c0.4-1,1-3.3,1.9-3.9c2.3-1.4,3.3,0.7,3.9,2.4
			c0.8,2.6,1.2,5.4,1.5,8.2c0.3,3.2,5.3,3.2,5,0c-0.4-4.9-0.8-13.9-6.3-16.1c-5.6-2.3-9.2,3.7-10.7,8c1.6,0.2,3.3,0.4,4.9,0.7
			c0-4.2-1.9-12.4-7.9-10.8c-6.6,1.7-3.9,10.3-7,14.3c1.6,0.4,3.1,0.8,4.7,1.3c0-3.6,0.4-7.4-0.1-11c-0.2-1.6-0.6-2.5-2-3.3
			C320.1,25,317.6,29.3,320.4,30.8L320.4,30.8z"/>
	</g>
</g>
<g>
	<g>
		<path data-async data-start="0" data-duration="200"
class="st0" d="M301.6,53c0.2,6.4,0.3,12.7,0.1,19.1c-0.1,3.2,4.9,3.2,5,0c0.2-6.4,0.1-12.7-0.1-19.1C306.4,49.8,301.4,49.8,301.6,53
			L301.6,53z"/>
	</g>
</g>
<g>
	<g>
		<path data-async data-start="0" data-duration="200"
class="st0" d="M294.3,70.7c2.1,11.6,18.1,11.9,21.4,0.9c0.9-3.1-3.9-4.4-4.8-1.3c-2,6.6-10.6,5.6-11.8-0.9
			C298.6,66.2,293.7,67.6,294.3,70.7L294.3,70.7z"/>
	</g>
</g>
<g>
	<g>
		<path data-async data-start="0" data-duration="200"
class="st0" d="M34.3,308.2c-5.1-3.8-12.5,2-11.2,7.9c0.6,2.9,3.3,4.3,5.8,5.3c1.8,0.7,6.9,2.7,6.2,5.6c-0.5,2.1-5.4,1.7-6.9,1.5
			c-3.2-0.4-3.2,4.6,0,5c4.5,0.5,12.4-0.6,11.9-6.6c-0.2-2.9-1.9-5.6-4-7.5c-1-0.8-2-1.4-3.2-1.9c-0.9-0.4-1.8-0.7-2.7-0.9
			c-2.3-3.5-1.8-4.8,1.5-4.1C34.4,314.4,36.9,310.1,34.3,308.2L34.3,308.2z"/>
	</g>
</g>
<g>
	<g>
		<path data-async data-start="0" data-duration="200"
class="st0" d="M49.3,313.6c0.2,3,0.1,6-0.2,9c-0.2,1.4,1.3,2.5,2.5,2.5c1.5,0,2.3-1.2,2.5-2.5c0.3-3,0.4-6,0.2-9
			C54,310.4,49,310.4,49.3,313.6L49.3,313.6z"/>
	</g>
</g>
<g>
	<g>
		<path data-async data-start="0" data-duration="200"
class="st0" d="M53.4,304.3c3.2,0,3.2-5,0-5C50.2,299.3,50.2,304.3,53.4,304.3L53.4,304.3z"/>
	</g>
</g>
<g>
	<g>
		<path data-async data-start="0" data-duration="200"
class="st0" d="M75.5,306.8c-4-1.3-10.1-1.6-11.5,3.6c-0.6,2.2,0.3,4.1,1.5,5.9c0.7,1.1,1.8,2.3,1.8,3.7c-0.1,2.1-1.9,2.7-3.6,2.6
			c-3.2-0.3-3.2,4.7,0,5c4.2,0.4,8-2.4,8.5-6.7c0.3-2.1-0.3-3.8-1.3-5.6c-0.4-0.7-2.1-2.5-2-3.3c0.5-2.4,4-0.9,5.3-0.5
			C77.2,312.6,78.5,307.8,75.5,306.8L75.5,306.8z"/>
	</g>
</g>
<g>
	<g>
		<path data-async data-start="0" data-duration="200"
class="st0" d="M95.9,309c0.7-4.7,1.9-10.7,0.1-15.3c-0.8-2-2.3-3.5-3.5-5.2c-1.4-1.9-2.5-4.1-4-5.8c-1.7-1.9-4.6-4.4-7.3-3
			c-4.9,2.5-1.6,10.6-5.1,14c1.4,0.8,2.8,1.6,4.2,2.4c0.5-3.5,1.4-7,2.9-10.2c1.3-2.6,1-2.8,4.5-2.2c1.8,0.3,3.7,0.8,5.5,1.2
			c3.1,0.8,4.4-4,1.3-4.8c-3.8-1-10.6-3.8-13.7-0.1c-3.2,3.9-4.6,9.9-5.3,14.7c-0.3,2.3,2.2,4.3,4.2,2.4c1.7-1.7,2.6-3.5,3.1-5.8
			c0.2-1.2,0.2-2.5,0.4-3.8c0.5-4,1-2.8,2.7-0.3c1.5,2.1,3.2,4.3,4.6,6.4c2.4,3.8,1.4,9.6,0.8,13.9C90.6,310.8,95.4,312.2,95.9,309
			L95.9,309z"/>
	</g>
</g>
</svg>
