<?xml version="1.0" encoding="utf-8"?>
<!-- Generator: Adobe Illustrator 23.0.2, SVG Export Plug-In . SVG Version: 6.00 Build 0)  -->
<svg version="1.1" id="Layer_1" xmlns="http://www.w3.org/2000/svg" xmlns:xlink="http://www.w3.org/1999/xlink" x="0px" y="0px"
	 viewBox="0 0 360 360" style="enable-background:new 0 0 360 360;" xml:space="preserve">
<g>
	<g>
		<path data-async data-start="0" data-duration="200"
class="st1" d="M51.2,200c2.1-10.6,8.2-19.6,17.5-25.2c9.8-6,20.9-10.3,31.3-15.2c2.9-1.4,0.4-5.7-2.5-4.3c-11.7,5.5-25,10.1-35.4,18
			c-8.2,6.2-13.7,15.3-15.7,25.4C45.7,201.8,50.5,203.2,51.2,200L51.2,200z"/>
	</g>
</g>
<g>
	<g>
		<path data-async data-start="0" data-duration="200"
class="st1" d="M97.4,156c-1.6,5-5.2,9.1-5.3,14.6c-0.1,4.8,2.3,9.1,4.8,13c6.3,9.6,13.2,20.4,10.5,32.5c-1.6,7.3-8.5,9.5-15.2,10.1
			c-7.5,0.6-12.2-2.9-16.7-8.5c-6.9-8.6-15.3-14.7-25.8-17.9c-3.1-0.9-4.4,3.9-1.3,4.8c6.9,2.1,13.1,5.5,18.3,10.5
			c4.4,4.2,7.4,10.1,12.6,13.3c8.3,5.1,24,3.6,30-4.5c6.3-8.5,3.4-21.8-0.6-30.6c-2.6-5.9-7.1-10.6-9.9-16.3
			c-3.9-7.7,1.1-12.6,3.4-19.7C103.2,154.2,98.3,152.9,97.4,156L97.4,156z"/>
	</g>
</g>
<g>
	<g>
		<path data-async data-start="0" data-duration="200"
class="st1" d="M128.4,134.3c2.7-6.4,10-8,16.2-9.5c7.6-1.9,15.4-3.3,23.3-4.1c15.3-1.6,30.8-1.1,46,1.5c-0.2-1.5-0.4-3-0.6-4.6
			c-5.7,3.9-12,8.4-13.6,15.6c-1.8,8.1,2.9,17.3,4.2,25.2c1.6,9.8,3.5,21.8-6,28.1c-7.6,5-18.7,5.5-27.5,4.7
			c-10.3-1-17.6-6.9-17.8-17.5c-0.2-7.9,2-15.8,0.1-23.6c-3.2-13.4-17.1-19.8-29.7-21c-3.2-0.3-3.2,4.7,0,5
			c7.8,0.8,16.2,3.7,21.3,10c5.8,7.2,3.9,16.5,3.4,25c-0.4,7.1,0.2,14.4,5.3,19.8c5.4,5.7,13.5,7.4,21,7.5
			c14.5,0.2,34.2-3.4,36-21.1c0.9-9-1-18.8-3.3-27.5c-1.4-5.5-4-11.4-1-16.8c2.2-4,6.3-6.7,10-9.1c1.6-1.1,1.7-4.2-0.6-4.6
			c-17.5-3-35.3-3.4-52.9-1c-8.1,1.1-16.2,2.6-24,5c-5.9,1.8-11.7,4.6-14.2,10.5C122.8,134.7,127.1,137.2,128.4,134.3L128.4,134.3z"
			/>
	</g>
</g>
<g>
	<g>
		<path data-async data-start="0" data-duration="200"
class="st1" d="M244.4,147.9c11.9-1.8,25.2,4,35,10.6c4.7,3.1,8.4,7.3,11.6,11.8c3.1,4.3,6.6,9.1,8.4,14.1c1.1,3,5.9,1.7,4.8-1.3
			c-2.1-5.7-5.9-11.1-9.4-16c-3.6-5-7.7-9.5-12.9-13c-11.1-7.3-25.4-13.1-38.8-11.1C239.9,143.6,241.2,148.4,244.4,147.9
			L244.4,147.9z"/>
	</g>
</g>
<g>
	<g>
		<path data-async data-start="0" data-duration="200"
class="st1" d="M237.1,146.9c1.7,4.7,3.5,9.5,3.4,14.6c-0.1,5.1-2,9.9-4.4,14.4c-4,7.5-8.8,14.4-12.1,22.3c-2.7,6.5-5.5,13.8-2.5,20.7
			c2.7,6.2,8.7,10.3,14.7,12.9c13,5.5,30.8,5.8,39.9-6.9c4.6-6.4,5.3-14.8,9.2-21.6c4.3-7.6,10.7-13.6,18.3-17.7
			c2.8-1.5,0.3-5.8-2.5-4.3c-11.4,6.1-19.9,16.2-24,28.5c-2.8,8.2-5.2,15.5-14,19c-8,3.2-17.2,1.7-24.9-1.6
			c-7.3-3.1-14.4-8.9-12.7-17.7c1.5-8.1,6-16,10.2-23c3.7-6.1,7.7-12.3,9.2-19.4c1.6-7.5-0.5-14.4-2.9-21.5
			C240.9,142.6,236,143.9,237.1,146.9L237.1,146.9z"/>
	</g>
</g>
<g>
	<g>
		<path data-async data-start="0" data-duration="200"
class="st1" d="M153.3,75.2c8.1,12.6,7.8,27.1,7.1,41.5c-0.2,3.2,4.8,3.2,5,0c0.7-15.3,0.8-30.6-7.8-44C155.9,70,151.6,72.5,153.3,75.2
			L153.3,75.2z"/>
	</g>
</g>
<g>
	<g>
		<path data-async data-start="0" data-duration="200"
class="st1" d="M149,63.3c-3,2.5-5.1,5.8-3.7,9.8c1.3,3.6,4.9,5.7,8.6,4.7c3.6-1,6-4.6,5-8.3c-1.2-4.6-5.8-6.5-9.9-7.7
			c-3.1-0.9-4.4,3.9-1.3,4.8c1.9,0.6,4.2,1.1,5.6,2.7c1.1,1.3,1.2,3.2-0.7,3.8c-1.4,0.4-2.4-0.6-2.7-1.9c-0.4-1.9,1.3-3.1,2.6-4.2
			C155,64.8,151.5,61.3,149,63.3L149,63.3z"/>
	</g>
</g>
<g>
	<g>
		<path data-async data-start="0" data-duration="200"
class="st1" d="M124.3,99.7c4.9-5.3,12.2-4.1,15.9,1.8c3.2,5.1,5.1,13.3,3.9,19.1c-0.6,3.1,4.2,4.5,4.8,1.3c1.7-8.4-0.9-20.4-7.2-26.6
			c-6-5.9-15.4-5.3-21,0.8C118.6,98.5,122.2,102.1,124.3,99.7L124.3,99.7z"/>
	</g>
</g>
<g>
	<g>
		<path data-async data-start="0" data-duration="200"
class="st1" d="M116.7,88.8c-5.8,3.6-6.7,10.4-4.7,16.6c1.5,4.4,5.3,9.2,10.5,7.5c5.4-1.8,4.4-8.9,3.8-13.3c-0.8-6.2-3.7-11.5-9.7-13.7
			c-3-1.1-4.3,3.7-1.3,4.8c5.2,1.9,7.1,9.1,6.3,14.1c-0.2,1-0.6,3.4-2.3,3.2c-1.4-0.2-2.4-3.4-2.8-4.6c-1.1-3.7-1.1-7.9,2.6-10.2
			C121.9,91.5,119.4,87.1,116.7,88.8L116.7,88.8z"/>
	</g>
</g>
<g>
	<g>
		<path data-async data-start="0" data-duration="200"
class="st1" d="M205.4,82.8c-6.1,0.6-12.2,2.9-14.8,8.9c-2.6,6-1.1,14.7-1,21c0,3.2,5,3.2,5,0c0-4.7-0.2-9.4,0-14.1
			c0.2-6.8,4.3-10.1,10.9-10.8C208.6,87.5,208.6,82.5,205.4,82.8L205.4,82.8z"/>
	</g>
</g>
<g>
	<g>
		<path data-async data-start="0" data-duration="200"
class="st1" d="M206.7,76c-2.4,3.4-3.3,7.7-2.4,11.8c0.7,3.5,3,7.8,7.2,7c4-0.7,5.4-5.2,5.2-8.7c-0.2-4.2-2.5-7.7-5.9-10.1
			c-2.6-1.9-5.1,2.5-2.5,4.3c1.6,1.1,2.8,2.8,3.2,4.7c0.3,1.1,0.2,5.9-1.8,3.6c-2.3-2.6-0.3-7.8,1.3-10.1
			C212.9,75.8,208.6,73.3,206.7,76L206.7,76z"/>
	</g>
</g>
<g>
	<g>
		<path data-async data-start="0" data-duration="200"
class="st1" d="M37.6,138.7c2,6.5,3.6,15.1,8.8,20c2.7,2.5,5.9,4.6,8.9,6.9c3,2.3,6,5.2,9.4,6.9c2.9,1.4,5.4-2.9,2.5-4.3
			c-5.6-2.8-11.3-8-16.1-12c-5.2-4.3-6.7-12.5-8.6-18.8C41.5,134.4,36.6,135.7,37.6,138.7L37.6,138.7z"/>
	</g>
</g>
<g>
	<g>
		<path data-async data-start="0" data-duration="200"
class="st1" d="M34,123.9c-3.8,2.5-5.3,7.3-3.5,11.5c1.8,4.3,6.7,6.5,11.2,5.9c5-0.7,8.1-5,6.9-10c-1.2-5.2-6.2-7.9-11.3-7
			c-3.2,0.6-1.8,5.4,1.3,4.8c2.4-0.4,4.8,1,5.2,3.5c0.4,2.8-1.7,4-4.2,3.8c-3.9-0.3-7.2-5.5-3.1-8.2C39.2,126.5,36.7,122.1,34,123.9
			L34,123.9z"/>
	</g>
</g>
<g>
	<g>
		<path data-async data-start="0" data-duration="200"
class="st1" d="M77.6,140.9c-2.4,7.2-3.4,14.7-3.1,22.3c0.2,3.2,5.2,3.2,5,0c-0.3-7.2,0.6-14.1,2.9-21C83.5,139.2,78.6,137.8,77.6,140.9
			L77.6,140.9z"/>
	</g>
</g>
<g>
	<g>
		<path data-async data-start="0" data-duration="200"
class="st1" d="M77,128.6c-4.3,2.8-8.7,8.1-4.7,13.1c3.2,4,10.3,4.3,14.8,2.7c4.6-1.6,5.8-7.4,3.3-11.3c-3-4.6-9.6-5.9-14.6-4.1
			c-3,1.1-1.7,5.9,1.3,4.8c2.4-0.9,5.4-0.9,7.7,0.7c2,1.4,2.9,4.4,0.1,5.4c-1.7,0.6-5.2,0.6-6.9,0c-4.5-1.6-1.1-5.3,1.4-6.9
			C82.2,131.1,79.7,126.8,77,128.6L77,128.6z"/>
	</g>
</g>
<g>
	<g>
		<path data-async data-start="0" data-duration="200"
class="st1" d="M30.6,180.2c7.1-4.8,21.3-8.7,26.1,1.2c1.4,2.9,5.7,0.4,4.3-2.5c-6.1-12.4-23.7-9.4-33-3
			C25.4,177.7,27.9,182.1,30.6,180.2L30.6,180.2z"/>
	</g>
</g>
<g>
	<g>
		<path data-async data-start="0" data-duration="200"
class="st1" d="M12.4,174.6c-1,4.9-0.8,12.3,4.9,14.1c2.5,0.8,5.5,0.7,8.1,0.5c2.2-0.1,4-1,4.7-3.2c1.5-4.6-1.5-9.6-5.1-12.2
			c-3.6-2.7-9.9-4.2-13.2-0.3c-2.1,2.4,1.5,6,3.5,3.5c3-3.6,10.7,2.7,10.2,6.6c-0.2,1.1-0.5,0.6-1.8,0.6c-1.1,0-2.2,0.1-3.4,0
			c-3.9-0.4-3.7-5.3-3.1-8.3C17.8,172.8,13,171.5,12.4,174.6L12.4,174.6z"/>
	</g>
</g>
<g>
	<g>
		<path data-async data-start="0" data-duration="200"
class="st1" d="M296.4,117.5c-6.9,3.2-11.6,10.2-16.1,16c-2.5,3.2-4.9,6.6-6.9,10.2c-1.4,2.6-4,6.6-3.8,9.6c0.1,1.6,1.5,2.8,3.2,2.4
			c0.1,0,0.2,0,0.3-0.1c0.9-0.2,2-1.4,1.8-2.4c0-0.1,0-0.1,0-0.2c-0.4-3.1-5.4-3.2-5,0c0,0.1,0,0.1,0,0.2c0.6-0.8,1.2-1.6,1.8-2.4
			c-0.1,0-0.2,0-0.3,0.1c1.1,0.8,2.1,1.6,3.2,2.4c-0.2-3,3.3-7.6,4.8-10c1.9-3,4-5.8,6.2-8.5c3.8-4.8,7.6-10.3,13.3-13
			C301.9,120.5,299.3,116.2,296.4,117.5L296.4,117.5z"/>
	</g>
</g>
<g>
	<g>
		<path data-async data-start="0" data-duration="200"
class="st1" d="M302,104.3c-6.2-1.2-7.8,7.7-8.1,12.2c-0.1,2.4,0.2,5,2.4,6.4c2,1.3,5.5,1.3,7.8,0.8c5.3-1.3,6.2-7,6-11.6
			c-0.1-2.5-0.7-5-2.8-6.6c-2.2-1.8-5.1-1.6-7.7-2.4c-3.1-1-4.4,3.9-1.3,4.8c2.2,0.7,5.7,0.3,6.6,2.7c0.7,1.6,0.4,5-0.3,6.6
			c-0.6,1.4-1.5,1.6-2.9,1.7c-0.6,0-1.2,0-1.8-0.1c-0.8,0-1.2-0.3-0.9-1.1c-0.5-1.3,0.3-3.8,0.7-5c0.2-0.9,0.6-1.8,0.9-2.7
			c0.8-0.7,0.8-1,0.2-0.9C303.8,109.7,305.2,104.9,302,104.3L302,104.3z"/>
	</g>
</g>
<g>
	<g>
		<path data-async data-start="0" data-duration="200"
class="st1" d="M255.9,115c2.7,4.3,3.4,9.4,3.3,14.4c-0.1,5.6-3.5,9.6-6.4,14.1c-1.7,2.7,2.6,5.2,4.3,2.5c3.5-5.4,7-10,7.1-16.7
			c0.1-5.9-0.8-11.8-4-16.9C258.5,109.8,254.2,112.3,255.9,115L255.9,115z"/>
	</g>
</g>
<g>
	<g>
		<path data-async data-start="0" data-duration="200"
class="st1" d="M255.8,102.3c-4.6-0.3-7.3,4-7.5,8.2c-0.1,1.9,0.1,4.2,1.8,5.4c1.7,1.3,4.5,1.2,6.5,1c2.1-0.2,4.2-0.5,5.6-2.1
			c1.2-1.4,1.6-3.4,1.6-5.3c0-4.4-3.1-8.1-7.7-7.4c-3.2,0.5-1.8,5.3,1.3,4.8c1.5-0.2,1.5,2.8,1.4,3.6c-0.3,1.7-1.8,1.5-3.3,1.5
			c-0.8,0-1.8,0.1-2.5-0.1c0.4,0.6,0.5,0.6,0.4-0.1c0-0.4,0-0.9,0-1.3c0.1-1.6,0.6-3.3,2.5-3.2C259,107.5,259,102.5,255.8,102.3
			L255.8,102.3z"/>
	</g>
</g>
<g>
	<g>
		<path data-async data-start="0" data-duration="200"
class="st1" d="M292.9,166.8c4.7-8.4,13.6-12.8,23.1-11.9c3.2,0.3,3.2-4.7,0-5c-11.2-1.1-21.9,4.6-27.5,14.4
			C287,167.1,291.3,169.6,292.9,166.8L292.9,166.8z"/>
	</g>
</g>
<g>
	<g>
		<path data-async data-start="0" data-duration="200"
class="st1" d="M325.6,145.1c-5.2-2.2-10.3,0.7-11,6.4c-0.6,5.1-1.7,13.7,4.7,15.6c5.1,1.5,12.3-2.2,14.2-7.1c2.7-6.8-2.9-12.5-8.3-15.7
			c-2.8-1.6-5.3,2.7-2.5,4.3c2.8,1.6,6.6,4.1,6.5,7.8c-0.1,3.2-3.3,5.2-6.2,5.8c-4.2,0.8-3.9-3.1-3.7-6.1c0.1-2.2-0.2-8.4,3.8-6.7
			C326.1,150.6,328.6,146.3,325.6,145.1L325.6,145.1z"/>
	</g>
</g>
<g>
	<g>
		<path data-async data-start="0" data-duration="200"
class="st1" d="M173.9,198.5c7.3,24.4-12.6,46.8-18.5,69.4c-2.9,11.1-2.5,22.1,1.8,32.8c4.8,12.1,10.4,24,15.6,35.9
			c2.6,5.9,11.2,0.8,8.6-5c-5.1-11.6-10.8-23.2-15.3-35.1c-4.4-11.7-2.7-23,1.6-34.5c8-21.3,22.8-42.3,15.7-66.1
			C181.6,189.7,172,192.3,173.9,198.5L173.9,198.5z"/>
	</g>
</g>
<g>
	<g>
		<path data-async data-start="0" data-duration="200"
class="st1" d="M100,234.5c20.4,11.1,33.6,28.4,43.6,49c5.1,10.6,9.8,21.4,14.6,32.1c4.2,9.2,9.8,18.9,20.7,20.8c6.3,1.1,9-8.5,2.7-9.6
			c-11-1.9-14.7-16.1-18.7-24.8c-4.8-10.5-9.3-21.2-14.7-31.4c-10.1-18.8-24.3-34.4-43.1-44.6C99.4,222.8,94.3,231.4,100,234.5
			L100,234.5z"/>
	</g>
</g>
<g>
	<g>
		<path data-async data-start="0" data-duration="200"
class="st1" d="M183.6,332.9c-4.2-9.7,1.7-20.8,7.7-28.4c6.5-8.3,14.7-15,22.7-21.7c15-12.6,30.7-26.7,34.6-46.8c1.2-6.3-8.4-9-9.6-2.7
			c-4.4,22.5-24.8,35.8-40.9,49.9c-15.1,13.3-32.3,33.3-23.1,54.7C177.4,343.8,186.1,338.7,183.6,332.9L183.6,332.9z"/>
	</g>
</g>
</svg>
