<?xml version="1.0" encoding="utf-8"?>
<!-- Generator: Adobe Illustrator 23.0.2, SVG Export Plug-In . SVG Version: 6.00 Build 0)  -->
<svg version="1.1" id="Layer_1" xmlns="http://www.w3.org/2000/svg" xmlns:xlink="http://www.w3.org/1999/xlink" x="0px" y="0px"
	 viewBox="0 0 360 360" style="enable-background:new 0 0 360 360;" xml:space="preserve">
<style type="text/css">
	.st0{fill:none;stroke:#000000;stroke-width:11;stroke-miterlimit:10;}
</style>
<g>
	<g>
		<path data-async data-start="0" data-duration="200"
class="st1" d="M37.1,157.7c-4.1,17.5-6.4,35.4-7.4,53.3c-1,17.2-2.5,35.8,0.9,52.7c3,14.6,12.1,27.1,26.8,31.2
			c7.7,2.1,16.2,2.7,24.2,2.6c7.4-0.1,15-1.4,21.3-5.6c25.6-16.9,18.4-56.7,45.5-71.7c14.7-8.1,33.8-9.6,50.2-10
			c4.2-0.1,8.4-0.1,12.6,0.1c2.3,0.1,4.5,0.2,6.8,0.4c3,0.3,4.1,0.7,5.9,3c5,6.2,11.9,10.6,16.4,17.1c4.3,6.1,7,13.1,10.7,19.5
			c3.5,6,8.1,11.1,13.7,15.2c10.8,7.7,24.6,10.7,37.6,8.5c6.6-1.1,13.4-3.8,18.5-8.2c5.7-4.9,8-12,8.8-19.3
			c2-16.5,2.4-34.6-3.4-50.4c-5.9-16.1-15.8-31-24.8-45.5c-9-14.6-18.2-29.4-29.3-42.5c-10.2-11.9-22.6-22-37.4-27.5
			c-16-5.9-32.1-3.5-48.2,0.7c-17.6,4.6-35.2,8.1-53.5,8.5c-18.2,0.5-36.5-2.8-54.6,0c-14.7,2.3-28.2,9-36.9,21.3
			c-9.2,12.9-11.7,29.4-11,44.9c0.4,8.7,1.8,17.3,3.2,25.9c1.1,6.3,10.7,3.6,9.6-2.7c-2.6-15.6-4.9-32.1-0.5-47.7
			c4-13.9,13.2-24.9,27.1-29.5c15.4-5.2,31.8-3.3,47.7-2.6c16.4,0.8,32.6-0.4,48.7-3.3c15.8-2.9,31.6-9.5,47.8-9.4
			c14.6,0.1,28.4,7.1,39.3,16.5c11.7,10.2,20.6,23,29,35.9c9.1,14,17.8,28.2,26,42.7c3.8,6.7,7.4,13.5,9.5,21
			c2.3,7.9,2.8,16.1,2.7,24.3c-0.1,7.4,0,15.4-1.7,22.6c-1.8,7.4-7.5,11.4-14.6,13.5c-11.7,3.4-24.9,0.8-34.6-6.4
			c-11.2-8.3-14.2-22.3-22.3-33c-4.3-5.7-10.3-9.5-14.8-14.9c-2.1-2.5-3.5-5-6.5-6.6c-3.1-1.6-6.9-1.6-10.3-1.8
			c-16.5-1-33.2,0.1-49.4,3.2c-13.2,2.6-26.9,7.3-35.9,17.9c-8.5,9.9-12.2,22.5-16.4,34.6c-4.3,12.2-10.2,26.9-24.1,30.3
			c-7.2,1.8-15.2,0.9-22.4,0.1c-7.4-0.8-14.7-2.9-19.8-8.6c-10.4-11.4-9.4-28.9-9.2-43.2c0.2-16.7,0.9-33.6,3.2-50.2
			c1.1-8.2,2.7-16.3,4.6-24.4C48.2,154.1,38.6,151.4,37.1,157.7L37.1,157.7z"/>
	</g>
</g>
<g>
	<g>
		<path data-async data-start="0" data-duration="200"
class="st1" d="M230.2,118.8c9.7,0,9.7-15,0-15C220.5,103.8,220.5,118.8,230.2,118.8L230.2,118.8z"/>
	</g>
</g>
<g>
	<g>
		<path data-async data-start="0" data-duration="200"
class="st1" d="M216.5,137.5c9.7,0,9.7-15,0-15C206.8,122.5,206.8,137.5,216.5,137.5L216.5,137.5z"/>
	</g>
</g>
<g>
	<g>
		<path data-async data-start="0" data-duration="200"
class="st1" d="M250.7,129.6c9.7,0,9.7-15,0-15C241,114.6,241,129.6,250.7,129.6L250.7,129.6z"/>
	</g>
</g>
<g>
	<g>
		<path data-async data-start="0" data-duration="200"
class="st1" d="M238.8,149.9c9.7,0,9.7-15,0-15C229.1,134.9,229.1,149.9,238.8,149.9L238.8,149.9z"/>
	</g>
</g>
<g>
	<g>
		<path data-async data-start="0" data-duration="200"
class="st1" d="M200.3,180.7c16.1,0,16.1-25,0-25C184.2,155.7,184.1,180.7,200.3,180.7L200.3,180.7z"/>
	</g>
</g>
<line class="st1" x1="95.8" y1="156.7" x2="104.7" y2="195.1"/>
<line class="st1" x1="119.5" y1="171.4" x2="81.1" y2="180.3"/>
<g>
	<g>
		<path data-async data-start="0" data-duration="200"
class="st1" d="M84.2,138.2c16.1,0,16.1-25,0-25C68.1,113.2,68.1,138.2,84.2,138.2L84.2,138.2z"/>
	</g>
</g>
<g>
	<g>
		<path data-async data-start="0" data-duration="200"
class="st1" d="M175.6,114.4c3.8-0.7,7.6-1.3,11.5-2c2.7-0.5,4.2-3.7,3.5-6.2c-0.8-2.8-3.5-4-6.2-3.5c-3.8,0.7-7.6,1.3-11.5,2
			c-2.7,0.5-4.2,3.7-3.5,6.2C170.2,113.8,172.9,114.9,175.6,114.4L175.6,114.4z"/>
	</g>
</g>
<g>
	<g>
		<path data-async data-start="0" data-duration="200"
class="st1" d="M123,121.1c3.8-0.7,7.6-1.3,11.5-2c2.7-0.5,4.2-3.7,3.5-6.2c-0.8-2.8-3.5-4-6.2-3.5c-3.8,0.7-7.6,1.3-11.5,2
			c-2.7,0.5-4.2,3.7-3.5,6.2C117.6,120.4,120.3,121.5,123,121.1L123,121.1z"/>
	</g>
</g>
</svg>
