<?xml version="1.0" encoding="utf-8"?>
<!-- Generator: Adobe Illustrator 23.0.2, SVG Export Plug-In . SVG Version: 6.00 Build 0)  -->
<svg version="1.1" id="Layer_1" xmlns="http://www.w3.org/2000/svg" xmlns:xlink="http://www.w3.org/1999/xlink" x="0px" y="0px"
	 viewBox="0 0 360 360" style="enable-background:new 0 0 360 360;" xml:space="preserve">
<g>
	<g>
		<path data-async data-start="0" data-duration="200"
class="st1" d="M54,90c2.2,0.4,3.9,2.3,5.7,3.5c1.8,1.2,3.7,2.2,5.7,3c4,1.6,8.1,2,12.3,1.1c3.1-0.7,1.8-5.5-1.3-4.8
			c-4.6,1-8.9-0.4-12.9-2.8c-2.7-1.6-4.9-4.2-8.1-4.8C52.2,84.6,50.8,89.4,54,90L54,90z"/>
	</g>
</g>
<g>
	<g>
		<path data-async data-start="0" data-duration="200"
class="st1" d="M56.3,88.7c7.2,0.6,14.3,0.2,21.4-1.2c3.2-0.6,1.8-5.4-1.3-4.8c-6.7,1.3-13.3,1.6-20.1,1C53.1,83.5,53.1,88.5,56.3,88.7
			L56.3,88.7z"/>
	</g>
</g>
<g>
	<g>
		<path data-async data-start="0" data-duration="200"
class="st1" d="M81.3,85.9c1.6-5.2,2.3-10.6,2.6-16c0.3-4.7,1-10.1-0.2-14.7c-0.8-3.1-2.8-5.4-5.7-6.7c-3.9-1.7-9.4-0.5-12.4-3.8
			c0,1.2,0,2.4,0,3.5c2.5-2.8,10.7-1.5,14.1-1.5c5,0,10.1,0.1,15.1,0.4c9.9,0.7,19.5,2.7,28.9,5.8c17,5.7,33.2,13.2,41.2,30.3
			c6.8,14.4,9.2,34.4,4,49.6c-6.5,19-27.5,22.3-45.1,23.1c-21.1,1-43.8,2.3-63.7-6.2c-0.2,1.5-0.4,3-0.6,4.6
			c5.6-2,12.3-3.3,17.2-6.6c4.1-2.7,6-7.2,6.8-12c2.2-13.1,0.5-27.4-2.1-40.3c-0.6-3.2-5.5-1.8-4.8,1.3c2.2,11.1,3.2,22.6,2.4,33.9
			c-0.3,4.8-1,10.4-5.6,13.2c-4.5,2.7-10.4,3.9-15.4,5.7c-1.8,0.6-2.8,3.6-0.6,4.6c20,8.6,42,7.8,63.4,7c18.3-0.7,41-3.1,50.4-21.4
			c8-15.6,6-37.3,0.1-53.3c-3.2-8.7-8.2-16.7-15.3-22.7c-7.7-6.4-16.9-10.3-26.2-13.7c-11.5-4.2-23-6.9-35.2-7.8
			c-6.6-0.5-13.2-0.5-19.8-0.3c-4.4,0.1-9.8-0.6-12.9,2.9c-0.9,1-1,2.5,0,3.5c2,2.2,4.4,3.1,7.3,3.6c3.7,0.7,8.1,0.3,9.5,4.7
			C80,60.2,79.2,65.1,79,69c-0.3,5.3-1,10.5-2.5,15.6C75.5,87.6,80.4,89,81.3,85.9L81.3,85.9z"/>
	</g>
</g>
<g>
	<g>
		<path data-async data-start="0" data-duration="200"
class="st1" d="M92.5,87.2c3,0.2,5.7-0.1,8.6-0.7c-1-0.6-2.1-1.2-3.1-1.7c1,5.5,1.9,11,2.9,16.5c1.2-0.9,2.4-1.9,3.7-2.8
			c-2.9-1.9-8.1-7-12-4.7c-3.7,2.3-1.6,8.7-1.2,12.2c1.4,13.5,2.5,27.1-0.3,40.5c-0.3,1.5,0.7,3.2,2.4,3.2
			c8.2-0.3,16.5-0.4,24.8-0.9c6.8-0.3,13.8-1.2,19.6-4.9c9.6-6.1,13.9-17.5,15.3-28.3c1.7-13.6-1.1-27-11.6-36.5
			c-9.7-8.8-22.8-17.1-35.3-21.1c-4.7-1.5-13.4-4.4-16.1,1.7c-1.2,2.7-0.5,6-0.3,8.8c0.4,5,0.8,10.1,1.2,15.1c0.3,3.2,5.3,3.2,5,0
			c-0.3-4.1-0.7-8.2-1-12.3c-0.2-1.9-0.3-3.8-0.5-5.7c-0.2-2.9,0.2-5,3.7-4.5c7.1,1,13.7,4.2,19.8,7.8c12.2,7.1,26.7,15.4,29.7,30.4
			c2.4,12.2,0.2,28.6-9.2,37.6c-5.5,5.3-13,6.4-20.3,6.8c-8.2,0.4-16.5,0.6-24.8,0.9c0.8,1.1,1.6,2.1,2.4,3.2c2-9.4,2.2-19,1.6-28.6
			c-0.3-5-0.9-10-1.4-15c-0.1-1.2-0.8-5.1-0.5-5.4c0.3-0.2,5.7,3.7,6.3,4.1c2,1.3,4-0.8,3.7-2.8c-1-5.5-1.9-11-2.9-16.5
			c-0.2-1.4-1.9-2-3.1-1.7c-2.5,0.6-4.8,0.7-7.3,0.6C89.2,82,89.3,87,92.5,87.2L92.5,87.2z"/>
	</g>
</g>
<g>
	<g>
		<path data-async data-start="0" data-duration="200"
class="st1" d="M206.9,89.6c-5.4,0.8-10.9,1.5-16.4,2.2c-2,0.3-3.4,2.6-1.8,4.3c4.1,4.1,8.7,7.4,13.8,9.9c2.9,1.4,5.4-2.9,2.5-4.3
			c-4.8-2.4-9-5.4-12.8-9.2c-0.6,1.4-1.2,2.8-1.8,4.3c5.9-0.7,11.8-1.5,17.7-2.4C211.4,93.9,210,89.1,206.9,89.6L206.9,89.6z"/>
	</g>
</g>
<g>
	<g>
		<path data-async data-start="0" data-duration="200"
class="st1" d="M209.3,93.1c6.9-8.9,4.1-20.5,9.2-30.1c2.7-5.2,7.1-9.3,10.1-14.2c3.3-5.4,5.4-11.4,6.5-17.6c-1.5,0.2-3,0.4-4.6,0.6
			c6.4,8.8,10.7,18.6,14.8,28.6c4.4,10.6,8.8,21.3,13.1,32c8.3,20.6,17.8,41.3,23.4,62.7c0.2-0.8,0.4-1.6,0.6-2.4
			c-3.5,3-12,0.8-16.2,0.5c-5.8-0.4-11.5-0.8-17.3-1.2c0.6,1.4,1.2,2.8,1.8,4.3c3.4-3.5,7.1-7.5,7-12.7c-0.1-6.2-4.3-13.2-6.5-18.9
			c-1.7-4.5-2.3-7.9-7.4-8.7c-7.3-1.1-15.1-0.9-22.5-1.3c-4.7-0.2-8,0.6-8.8,5.8c-0.9,6.5,0.4,13.5,0.1,20.1
			c-0.2,3.8-0.4,8.3-1.8,11.9c-1.8,4.5-5.9,3.4-10.1,3.4c-7.4-0.2-14.9-0.8-22.2-1.7c0.4,1.6,0.8,3.1,1.3,4.7
			c7.9-5,18.7-9,21.8-18.5c3.5-10.8,5.6-22.2,6.8-33.5c0.3-3.2-4.7-3.2-5,0c-1.1,9.7-2.9,19.2-5.6,28.6c-1.5,5.2-2.9,7.9-7.5,10.9
			c-4.3,2.8-8.7,5.5-13.1,8.2c-2.3,1.4-1.1,4.3,1.3,4.7c5.8,0.8,11.7,1.3,17.6,1.6c4.4,0.2,11.2,1.5,15.4-0.4
			c3.6-1.7,4.4-6.5,5.1-10c1.1-5.3,1.3-10.7,1.2-16.1c0-2.8-0.1-5.5-0.2-8.3c0-2-0.4-3.4,0.9-5c1.6-1.8,2.3-1.2,4.8-1.1
			c5.9,0.3,11.9,0.7,17.8,1c2.6,0.1,2.9-0.3,4.4,2.6c0.6,1.1,0.9,2.4,1.3,3.5c1.1,2.9,2.2,5.8,3.4,8.8c1.2,3,3.2,6.8,2.3,10.1
			c-0.8,2.8-3.2,5.1-5.2,7.1c-1.6,1.6-0.3,4.1,1.8,4.3c7.7,0.5,15.3,1.1,23,1.6c5,0.4,9.9,1.1,14-2.4c0.7-0.6,0.9-1.6,0.6-2.4
			c-5.8-22.1-15.6-43.4-24.1-64.6c-4.3-10.7-8.7-21.3-13.1-31.9c-4.1-9.8-8.4-19.4-14.6-28.1c-1.1-1.5-4.2-1.7-4.6,0.6
			c-1.1,6.1-3.1,11.9-6.5,17.1c-3,4.7-7,8.6-9.7,13.5c-4.8,9-2.1,20.9-8.4,29.1C203.9,92.1,207.4,95.6,209.3,93.1L209.3,93.1z"/>
	</g>
</g>
<g>
	<g>
		<path data-async data-start="0" data-duration="200"
class="st1" d="M228.6,67.5c-1.5,4.8-3.1,9.6-4.6,14.4c-1.1,3.5-3.3,7.7-3.6,11.5c-0.2,2.5,1.1,3.7,3.5,4.2c4,0.9,8.9,0.4,13,0.5
			c2.6,0.1,6.2,1,8.1-1.3c1.7-2,0.7-4.4-0.5-6.5c-4.3-7.4-10.5-13.2-12.3-21.8c-0.6-3.2-5.5-1.8-4.8,1.3c1,4.9,3.2,9.1,5.9,13.3
			c1.5,2.2,3.1,4.3,4.6,6.5c0.6,0.9,2,2.2,2.2,3.3c0.2,1-0.4,0.4-2.4,0.2c-3.1-0.2-6.3,0-9.5-0.3c-3.6-0.4-1.9-2.2-1-5.1
			c2-6.3,4.1-12.6,6.1-18.9C234.4,65.8,229.6,64.5,228.6,67.5L228.6,67.5z"/>
	</g>
</g>
<g>
	<g>
		<path data-async data-start="0" data-duration="200"
class="st1" d="M27.6,199.6c-3.8,28.8,0.3,58.1-4.2,86.8c-0.5,3.1,4.3,4.5,4.8,1.3c4.6-29.2,0.5-58.9,4.4-88.2
			C33,196.4,28,196.5,27.6,199.6L27.6,199.6z"/>
	</g>
</g>
<g>
	<g>
		<path data-async data-start="0" data-duration="200"
class="st1" d="M74.8,198.5c0,29-0.4,58-1.4,87.1c-0.1,3.2,4.9,3.2,5,0c0.9-29,1.4-58,1.4-87.1C79.8,195.2,74.8,195.2,74.8,198.5
			L74.8,198.5z"/>
	</g>
</g>
<g>
	<g>
		<path data-async data-start="0" data-duration="200"
class="st1" d="M30.1,245.7c15.6-0.2,31.2-0.1,46.8,0.4c3.2,0.1,3.2-4.9,0-5c-15.6-0.5-31.2-0.6-46.8-0.4
			C26.9,240.7,26.9,245.7,30.1,245.7L30.1,245.7z"/>
	</g>
</g>
<g>
	<g>
		<path data-async data-start="0" data-duration="200"
class="st1" d="M121,222.7c-3.3,2.3-4.7,5.4-6.2,9.1c-2.3,5.6-4.6,11.2-6.8,16.9c-4.5,11.3-8.9,22.5-13.3,33.9c-1.2,3,3.7,4.3,4.8,1.3
			c3.7-9.5,7.4-19.1,11.1-28.5c1.9-4.7,3.8-9.5,5.7-14.2c1.8-4.3,3.2-11.2,7.2-14.1C126.1,225.2,123.6,220.8,121,222.7L121,222.7z"
			/>
	</g>
</g>
<g>
	<g>
		<path data-async data-start="0" data-duration="200"
class="st1" d="M127,215.2c4.9-5.4,9.7-10.8,13-17.3c-1.5-0.2-3-0.4-4.6-0.6c4.4,14.8,8.6,29.7,12.5,44.6c1.9,7.3,3.8,14.6,5.6,22
			c1.9,7.6,3.8,15.1,3.7,23c-0.1,3.2,4.9,3.2,5,0c0.2-14.9-5.2-30.1-8.9-44.4c-4.1-15.6-8.4-31.1-13-46.6c-0.6-1.9-3.6-2.6-4.6-0.6
			c-3.1,6.2-7.5,11.2-12.2,16.3C121.3,214,124.8,217.5,127,215.2L127,215.2z"/>
	</g>
</g>
<g>
	<g>
		<path data-async data-start="0" data-duration="200"
class="st1" d="M114.9,241.4c10.7-0.1,21.3,0.1,32,0.8c3.2,0.2,3.2-4.8,0-5c-10.7-0.6-21.3-0.9-32-0.8
			C111.7,236.4,111.7,241.4,114.9,241.4L114.9,241.4z"/>
	</g>
</g>
<g>
	<g>
		<path data-async data-start="0" data-duration="200"
class="st1" d="M181.7,200.5c-0.1,14.4-0.2,28.9-0.3,43.3c-0.1,13.6,1.3,28.2-2.8,41.4c-0.5,1.5,0.8,3.2,2.4,3.2
			c17.7-0.2,35.4-0.9,53.1-1.9c3.2-0.2,3.2-5.2,0-5c-17.7,1-35.4,1.6-53.1,1.9c0.8,1.1,1.6,2.1,2.4,3.2c4-13,2.9-27.3,2.9-40.8
			c0.1-15.1,0.2-30.2,0.3-45.3C186.7,197.2,181.7,197.2,181.7,200.5L181.7,200.5z"/>
	</g>
</g>
<g>
	<g>
		<path data-async data-start="0" data-duration="200"
class="st1" d="M275.6,249.3c3,0,6,0,9,0c2.7,0,5-2.3,5-5c0-2.7-2.3-5-5-5c-3,0-6,0-9,0c-2.7,0-5,2.3-5,5
			C270.6,247.1,272.9,249.3,275.6,249.3L275.6,249.3z"/>
	</g>
</g>
<g>
	<g>
		<path data-async data-start="0" data-duration="200"
class="st1" d="M252.9,223.6c12.5-9,32-15.9,46.2-6.9c6.4,4,13.7,8.8,19.1,14.2c5.4,5.3,7.3,14.6,6.5,21.9c-1.7,15.3-21.3,22.9-34.6,23.4
			c-7.8,0.3-15.1-1.6-22.3-4.7c-6.9-3.1-13.6-6.5-21.2-7.8c-6.3-1.1-9,8.5-2.7,9.6c7.8,1.4,14.6,5.1,21.8,8.1
			c6.5,2.7,13.2,4.5,20.3,4.7c14,0.6,28.8-4.3,39-14.1c11.1-10.6,12-26.8,5.7-40.3c-3.1-6.6-8.5-10.5-14.2-14.7
			c-6.2-4.5-12.2-9.8-19.5-12.6c-15.9-6-36.2,1-49.3,10.4C242.6,218.6,247.6,227.3,252.9,223.6L252.9,223.6z"/>
	</g>
</g>
<g>
	<g>
		<path data-async data-start="0" data-duration="200"
class="st1" d="M328.3,245.7c3.9,0.2,7.8,0.3,11.7,0.1c3.2-0.1,3.2-5.1,0-5c-3.9,0.1-7.8,0.1-11.7-0.1
			C325.1,240.5,325.1,245.5,328.3,245.7L328.3,245.7z"/>
	</g>
</g>
</svg>
