<?xml version="1.0" encoding="utf-8"?>
<!-- Generator: Adobe Illustrator 23.0.2, SVG Export Plug-In . SVG Version: 6.00 Build 0)  -->
<svg version="1.1" id="Layer_1" xmlns="http://www.w3.org/2000/svg" xmlns:xlink="http://www.w3.org/1999/xlink" x="0px" y="0px"
	 viewBox="0 0 360 360" style="enable-background:new 0 0 360 360;" xml:space="preserve">
<g>
	<g>
		<path data-async data-start="0" data-duration="200"
class="st1" d="M221,231.5c-6.7-12.7-18.7-22.2-32.7-25.5c-8.5-2-16.1-0.7-24,3c-7.5,3.5-15.3,7.4-20.6,14c-19,23.3-18.7,60.3-6.2,86.3
			c3.3,6.9,7.6,13.8,13.1,19.1c5.9,5.7,13.3,8.1,21,10.1c9.7,2.6,19.5,5,29.3,7.2c8.9,2,17.9,4.1,26.9,4.5
			c32.6,1.2,56.6-26.7,59.7-57.4c1.8-18.2-2.3-36.5-17.1-48.2c-14.2-11.2-33.6-20.3-52-19.4c-3.2,0.2-3.2,5.2,0,5
			c15.5-0.8,30.4,6,43.2,14.2c6,3.8,11.6,8.4,15.3,14.6c4,6.7,5.5,14.6,5.9,22.3c1.5,28.1-14.6,57.5-43.9,63.1
			c-15.7,3-32.8-2.5-48.1-6.1c-8-1.9-16.1-3.8-23.9-6.3c-8-2.6-13.6-7.2-18.4-13.9c-15.5-21.8-18.8-51.5-9.4-76.4
			c3.1-8.1,7.3-16.1,14.5-21.2c6.9-4.9,16.3-10.1,24.8-10.6c15.8-1,31.1,10.8,38.2,24.1C218.2,236.8,222.5,234.3,221,231.5
			L221,231.5z"/>
	</g>
</g>
<g>
	<g>
		<path data-async data-start="0" data-duration="200"
class="st1" d="M127.9,185.4c0.7-10.1-6.9-16.9-14.9-21.5c-8.8-5.1-18.6-8.8-28.8-9.5c-9.6-0.7-19.6,1.6-27.4,7.4
			c-8.2,6-13.7,15.6-17.9,24.6c-8.3,17.8-11.5,38-7.7,57.3c1.8,9.3,5.2,19.6,11.7,26.7c6.6,7.3,15.7,13.2,24.3,17.9
			c10.3,5.6,21.5,9.8,33.1,12.1c9.6,1.9,22.7,4.9,31.3-1.3c2.6-1.9,0.1-6.2-2.5-4.3c-7.1,5.2-18.6,2.6-26.6,1
			c-8.7-1.7-17.2-4.4-25.3-8.1c-7.9-3.6-15.4-8.1-22.3-13.4c-7.8-6-12.8-12.6-16-21.9c-5.6-16.3-5.2-34.1-0.4-50.5
			c4.8-16.4,14.3-36.1,32-41.1c9.9-2.8,20.4-1.2,29.8,2.5c9.4,3.7,23.5,10.3,22.7,22.2C122.6,188.6,127.6,188.6,127.9,185.4
			L127.9,185.4z"/>
	</g>
</g>
<g>
	<g>
		<path data-async data-start="0" data-duration="200"
class="st1" d="M122,189.6c8.8-0.1,18.8-1.4,27.5,0.2c8.6,1.7,14.9,9.1,15.4,17.8c0.2,3.2,5.2,3.2,5,0c-0.6-9-5.8-17.3-14.2-21.1
			c-4.4-2-9.1-2.2-13.8-2.2c-6.6,0-13.3,0.2-19.9,0.2C118.7,184.6,118.7,189.6,122,189.6L122,189.6z"/>
	</g>
</g>
<g>
	<g>
		<path data-async data-start="0" data-duration="200"
class="st1" d="M124.6,191.2c15.6-2.9,31.3-6.1,45.3-14.1c13-7.4,24.9-17.7,35.8-28c21.1-19.9,39-43.4,52.7-68.9
			c6.1-11.3-11.2-21.5-17.3-10.1c-12.7,23.7-28.9,45.2-48.4,63.7c-9.6,9.2-20,18.2-31.4,25c-12.8,7.7-27.6,10.3-42.1,13
			c-5.3,1-8.3,7.4-7,12.3C113.8,189.8,119.2,192.2,124.6,191.2L124.6,191.2z"/>
	</g>
</g>
<g>
	<g>
		<path data-async data-start="0" data-duration="200"
class="st1" d="M243.5,77.2c6.9,50-2.9,102.1-26.6,146.5c-6.1,11.3,11.2,21.5,17.3,10.1c26.5-49.6,36.3-106.3,28.6-161.9
			c-0.7-5.4-7.6-8.3-12.3-7C244.7,66.4,242.7,71.8,243.5,77.2L243.5,77.2z"/>
	</g>
</g>
<g>
	<g>
		<path data-async data-start="0" data-duration="200"
class="st1" d="M261.9,72.1c-0.2-4.6,1.3-8.5,3.4-12.6c1.9-3.6,3-7,7.2-7.7c9.4-1.6,19-1.8,28.5-2.6c19.2-1.7,36.5-7.1,51-20.2
			c-3.9-0.5-7.9-1-11.8-1.5c1.8,4.2,1.4,9.5,1.3,14c0,4.8-0.2,9.8-2.3,14.2c-3.9,8.2-12.3,13.2-20.5,16c-9.7,3.2-20.1,4.7-30.2,5.5
			c-7.7,0.6-19.3,2.5-25.7-3.3c-7.2-6.4-17.8,4.1-10.6,10.6c9.8,8.8,22.9,8.6,35.3,7.7c13.5-1,27.6-2.8,40.1-8
			c11.3-4.7,21.3-12.7,26-24.2c2.5-6.2,3-12.9,3-19.6c0-7.3-0.5-13.9-3.4-20.6c-2-4.7-8.6-4.4-11.8-1.5
			c-16.2,14.5-36.1,15.3-56.6,16.9c-9.4,0.7-21.4,0.6-27.6,8.8c-5.9,7.7-10.8,18.1-10.3,28C247.4,81.7,262.4,81.8,261.9,72.1
			L261.9,72.1z"/>
	</g>
</g>
<g>
	<g>
		<path data-async data-start="0" data-duration="200"
class="st1" d="M259.6,63.4c2.3-9.7-3.8-16.7-11-22.3c-6.9-5.4-14-9.7-22.2-12.8c-14.2-5.3-31.2-6.4-43.1-16.6c-3.5-3-9.4-3.1-11.8,1.5
			c-2.8,5.5-2,10.6-0.2,16.3c1.9,6.3,3.9,12.6,5.9,18.9c3.4,10.7,8.5,20.3,18.7,25.9c10.4,5.7,22.4,6.2,34,5.7
			c11.4-0.5,23.6-1,33.3-7.6c7.9-5.4,0.4-18.4-7.6-13c-7.1,4.8-15.6,5.1-23.9,5.5c-8.6,0.4-17.8,0.9-26-2.5c-7.2-3-11-8.6-13.4-15.8
			c-1.6-4.6-2.9-9.2-4.3-13.8c-0.8-2.5-1.5-4.9-2.3-7.4c-0.2-0.7-1.7-3.9-1.3-4.7c-3.9,0.5-7.9,1-11.8,1.5c11,9.5,24.6,13,38.3,16.8
			c6.6,1.8,13.1,3.8,19.1,7.2c2.9,1.6,16.1,9,15.1,13C242.9,68.8,257.4,72.8,259.6,63.4L259.6,63.4z"/>
	</g>
</g>
</svg>
