<?xml version="1.0" encoding="utf-8"?>
<!-- Generator: Adobe Illustrator 23.0.2, SVG Export Plug-In . SVG Version: 6.00 Build 0)  -->
<svg version="1.1" id="Layer_1" xmlns="http://www.w3.org/2000/svg" xmlns:xlink="http://www.w3.org/1999/xlink" x="0px" y="0px"
	 viewBox="0 0 360 360" style="enable-background:new 0 0 360 360;" xml:space="preserve">
<style type="text/css">
	.st0{fill:none;stroke:#000000;stroke-width:5;stroke-miterlimit:10;}
	.st1{fill:none;stroke:#000000;stroke-width:3;stroke-miterlimit:10;}
	.st2{fill:none;stroke:#000000;stroke-width:8;stroke-miterlimit:10;}
	.st3{fill:none;stroke:#000000;stroke-width:21;stroke-miterlimit:10;}
</style>
<circle class="st0" cx="219.4" cy="190.8" r="76.3"/>
<path class="st0" d="M300.1,291H59.9c-5,0-9-4-9-9V99.6c0-5,4-9,9-9h240.1c5,0,9,4,9,9V282C309.1,286.9,305,291,300.1,291z"/>
<path class="st0" d="M270.1,90.6H168.6V78c0-5,4-9,9-9h83.5c5,0,9,4,9,9V90.6z"/>
<rect x="66" y="79.8" class="st1" width="33" height="10.8"/>
<circle class="st2" cx="219.4" cy="190.8" r="62.2"/>
<line class="st3" x1="73.9" y1="122.4" x2="110.2" y2="122.4"/>
</svg>
