<?xml version="1.0" encoding="utf-8"?>
<!-- Generator: Adobe Illustrator 23.0.2, SVG Export Plug-In . SVG Version: 6.00 Build 0)  -->
<svg version="1.1" id="Layer_1" xmlns="http://www.w3.org/2000/svg" xmlns:xlink="http://www.w3.org/1999/xlink" x="0px" y="0px"
	 viewBox="0 0 360 360" style="enable-background:new 0 0 360 360;" xml:space="preserve">
<style type="text/css">
	.st0{fill:none;stroke:#000000;stroke-width:6;stroke-miterlimit:10;}
</style>
<ellipse class="st0" cx="177.1" cy="185.1" rx="136.8" ry="139.9"/>
<g>
	<g>
		<path data-async data-start="0" data-duration="200"
class="st1" d="M169.3,103.8c5,35.7,4.2,71.8,3.4,107.7c-0.8,35.8-1.5,71.6-2.3,107.4c-0.1,6.4,9.9,6.4,10,0c0.8-36.5,1.6-72.9,2.4-109.4
			c0.8-36.2,1.3-72.4-3.8-108.4C178,94.8,168.4,97.5,169.3,103.8L169.3,103.8z"/>
	</g>
</g>
<g>
	<g>
		<path data-async data-start="0" data-duration="200"
class="st1" d="M82.8,135.3c3.6,4.8,8.3,8.6,11.7,13.6c3.5,5,5.9,10.7,7.5,16.5c3.7,13.2,3.4,27.1,3.2,40.7c-0.1,6.4,9.9,6.4,10,0
			c0.2-14.5,0.4-29.3-3.6-43.4c-1.7-6.1-4.2-12.2-7.6-17.5c-3.6-5.6-8.6-9.7-12.6-14.9C87.6,125.2,78.9,130.1,82.8,135.3L82.8,135.3
			z"/>
	</g>
</g>
<g>
	<g>
		<path data-async data-start="0" data-duration="200"
class="st1" d="M254.6,123c-8.2,10.7-11,24-12.1,37.2c-0.5,6.9-0.6,13.8-0.7,20.7c-0.1,7.3-1,14.9,1.2,21.9c1.9,6.1,11.6,3.5,9.6-2.7
			c-1.9-6.1-1-12.9-0.9-19.2c0.1-6.4,0.2-12.7,0.6-19.1c0.8-12.1,3.3-24,10.9-33.8C267.2,122.9,258.5,118,254.6,123L254.6,123z"/>
	</g>
</g>
<g>
	<g>
		<path data-async data-start="0" data-duration="200"
class="st1" d="M109.6,216.2c23.1-0.8,46.1,2.2,69.3,1c23.3-1.2,46.5-4,69.8-2.1c6.4,0.5,6.4-9.5,0-10c-23.3-1.9-46.5,0.9-69.8,2.1
			c-23.1,1.2-46.1-1.8-69.3-1C103.2,206.4,103.2,216.4,109.6,216.2L109.6,216.2z"/>
	</g>
</g>
<g>
	<g>
		<path data-async data-start="0" data-duration="200"
class="st1" d="M257.9,116c-14-1-27.7,11.7-34.3,23.1c-3.2,5.6,5.4,10.6,8.6,5c4.9-8.4,15.3-18.9,25.7-18.1
			C264.4,126.5,264.3,116.5,257.9,116L257.9,116z"/>
	</g>
</g>
<g>
	<g>
		<path data-async data-start="0" data-duration="200"
class="st1" d="M87.4,134.2c5.7-3,13,2.2,18.6,3.6c5.8,1.5,11.8,2.8,12.4,9.9c0.6,6.4,10.6,6.4,10,0c-0.9-9.7-7.1-16.6-16.6-18.8
			c-9.9-2.3-19.4-8.5-29.4-3.3C76.7,128.5,81.7,137.1,87.4,134.2L87.4,134.2z"/>
	</g>
</g>
<g>
	<g>
		<path data-async data-start="0" data-duration="200"
class="st1" d="M170.5,88.1c-3.9,4.5-5.5,10.8-8.3,16c-3.1,5.8-6.5,11.4-9.7,17.2c-3.2,5.6,5.4,10.6,8.6,5c3-5.2,6-10.4,8.9-15.6
			c1.3-2.3,2.5-4.6,3.6-7c1.2-2.6,2.1-6.3,3.9-8.5C181.7,90.3,174.7,83.2,170.5,88.1L170.5,88.1z"/>
	</g>
</g>
<g>
	<g>
		<path data-async data-start="0" data-duration="200"
class="st1" d="M172.2,90.5c1.4,5.7,5.8,10.7,8.4,16c2.9,5.9,5.5,11.9,8.3,17.9c2.7,5.8,11.3,0.8,8.6-5c-2.5-5.4-4.9-10.9-7.5-16.3
			c-1.1-2.4-2.3-4.7-3.6-7c-1.5-2.6-3.8-5.2-4.5-8.2C180.4,81.6,170.7,84.2,172.2,90.5L172.2,90.5z"/>
	</g>
</g>
</svg>
