<?xml version="1.0" encoding="utf-8"?>
<!-- Generator: Adobe Illustrator 23.0.2, SVG Export Plug-In . SVG Version: 6.00 Build 0)  -->
<svg version="1.1" id="Layer_1" xmlns="http://www.w3.org/2000/svg" xmlns:xlink="http://www.w3.org/1999/xlink" x="0px" y="0px"
	 viewBox="0 0 360 360" style="enable-background:new 0 0 360 360;" xml:space="preserve">
<g>
	<g>
		<path data-async data-start="0" data-duration="200"
class="st1" d="M40.8,274.4c-2.9-2.6-7.2-6.6-11.3-6.5c-4.1,0.1-6.8,4.5-8.5,7.7c-1.9,3.7-4.3,8.4-3.8,12.7c0.5,4.4,3.7,6.4,7.4,8.1
			c7.6,3.4,17,7.6,22.5-1.4c4.4-7.2,0.8-16-6.1-20c-2.8-1.6-5.3,2.7-2.5,4.3c4.5,2.6,7.4,8.3,4.3,13.1c-3.8,6-10.8,1.7-15.6-0.4
			c-2.2-1-4.7-1.6-5.1-4.5c-0.3-2.4,1.6-5.9,2.5-7.9c1.2-2.7,2.6-6.8,6.4-6.2c2.1,0.3,4.8,3.2,6.3,4.5
			C39.6,280.1,43.2,276.5,40.8,274.4L40.8,274.4z"/>
	</g>
</g>
<g>
	<g>
		<path data-async data-start="0" data-duration="200"
class="st1" d="M40.7,277.1c1-1.5,5.2-1.5,6.9-1.8c3.2-0.6,6.4-1.1,9.7-1.7c6.1-1.1,12.2-2.1,18.3-3.2c3.2-0.5,1.8-5.4-1.3-4.8
			c-7.7,1.3-15.4,2.7-23.2,4c-4.7,0.8-11.8,0.5-14.7,4.9C34.6,277.3,38.9,279.8,40.7,277.1L40.7,277.1z"/>
	</g>
</g>
<g>
	<g>
		<path data-async data-start="0" data-duration="200"
class="st1" d="M41,290.2c2,2.4,4.6,2.7,7.5,3.2c4.3,0.6,8.7,1.1,13.1,1.5c9.3,0.8,18.6,0.9,27.9,0.6c3.2-0.1,3.2-5.1,0-5
			c-7.4,0.3-14.7,0.2-22.1-0.2c-3.5-0.2-7-0.5-10.5-0.9c-3.3-0.3-9.9,0-12.3-2.8C42.4,284.2,38.9,287.8,41,290.2L41,290.2z"/>
	</g>
</g>
<g>
	<g>
		<path data-async data-start="0" data-duration="200"
class="st1" d="M43.3,274.7c2.7,1.5,5.8,3,7.6,5.6c2,2.9,1.5,6.7,2.6,9.9c1,3,5.9,1.7,4.8-1.3c-1.4-4.1-0.9-8.2-3.6-11.9
			c-2.3-3-5.6-4.9-8.8-6.7C43,268.9,40.5,273.2,43.3,274.7L43.3,274.7z"/>
	</g>
</g>
<g>
	<g>
		<path data-async data-start="0" data-duration="200"
class="st1" d="M62.4,276.1c7.9-0.6,9.9,8.9,10.4,15c0.2,3.2,5.2,3.2,5,0c-0.7-8.7-4.4-20.7-15.4-20C59.2,271.4,59.2,276.4,62.4,276.1
			L62.4,276.1z"/>
	</g>
</g>
<g>
	<g>
		<path data-async data-start="0" data-duration="200"
class="st1" d="M64.9,249.9c7.8,7.8,14.1,18,18.8,28c5.6,11.9,5.3,23.5,3.4,36.2c-0.5,3.1,4.4,4.5,4.8,1.3c1.9-13,2.6-25-2.7-37.4
			c-4.8-11.3-12-23-20.8-31.7C66.1,244.1,62.6,247.6,64.9,249.9L64.9,249.9z"/>
	</g>
</g>
<g>
	<g>
		<path data-async data-start="0" data-duration="200"
class="st1" d="M65.8,249.7c1.9-2.3,5.4-7.3,8.5-8.2c3.6-1,7.7,7.1,9.4,9.5c4.7,6.6,9.7,13,14.1,19.7c9.7,14.6,13.6,31.3,6.2,47.8
			c0.7-0.4,1.4-0.8,2.2-1.2c-4.6-0.1-8.8-0.9-12.9-2.9c-2.9-1.3-5.4,3-2.5,4.3c5,2.3,10,3.5,15.5,3.5c0.8,0,1.8-0.5,2.2-1.2
			c4-8.9,5.6-18.5,4.2-28.2c-1.5-10.5-6.8-19.7-12.8-28.2c-3.1-4.4-6.4-8.8-9.5-13.2c-3-4.1-5.8-8.9-9.3-12.6
			c-6.7-7.1-14.4,2.1-18.7,7.4C60.2,248.6,63.7,252.1,65.8,249.7L65.8,249.7z"/>
	</g>
</g>
<g>
	<g>
		<path data-async data-start="0" data-duration="200"
class="st1" d="M172.1,232.7c26.7-10.3,51.6-24.6,74.2-42.1c11.7-9.1,22.9-18.9,33.3-29.5c9.8-9.9,19-20.6,24.6-33.5
			c1.3-2.9-3.1-5.5-4.3-2.5c-5.4,12.6-14.2,22.9-23.8,32.5c-10.3,10.4-21.2,20.1-32.8,29.1c-22.1,17-46.5,31.1-72.5,41.2
			C167.8,229,169,233.9,172.1,232.7L172.1,232.7z"/>
	</g>
</g>
<g>
	<g>
		<path data-async data-start="0" data-duration="200"
class="st1" d="M303.9,110c-4.5,27.7-12.7,55.1-24.5,80.5c-11,23.8-25.9,44.1-45.4,61.7c-2.4,2.2,1.2,5.7,3.5,3.5
			c19.7-17.8,35-38.5,46.1-62.7c11.9-25.9,20.4-53.6,25-81.7C309.2,108.1,304.4,106.8,303.9,110L303.9,110z"/>
	</g>
</g>
<g>
	<g>
		<path data-async data-start="0" data-duration="200"
class="st1" d="M330.9,273.6c2-1.6,4.4-3.6,6.8-4.5c4.3-1.5,6,1.6,7.5,4.8c1.3,2.7,4,8.2,1.4,11c-1.7,1.9-5.3,2.7-7.5,3.6
			c-4.7,1.9-11.6,5.7-15.5,0.4c-4-5.4,1.2-11.5,5.9-14c2.8-1.5,0.3-5.8-2.5-4.3c-7.2,3.8-12.8,12.8-7.9,20.6
			c6,9.6,17.3,3.8,25.3,0.5c3.7-1.5,7.2-3.4,8.1-7.5c1-4.3-1.2-9-3-12.9c-1.7-3.6-4.6-8.3-9.1-8.3c-4.7-0.1-9.6,4.2-13,6.9
			C324.9,272,328.4,275.5,330.9,273.6L330.9,273.6z"/>
	</g>
</g>
<g>
	<g>
		<path data-async data-start="0" data-duration="200"
class="st1" d="M331.9,270.2c-3.1-4.7-11.7-4-16.6-4.7c-8.7-1.1-17.3-2.3-26-3.4c-3.2-0.4-3.1,4.6,0,5c6.4,0.8,12.8,1.7,19.3,2.5
			c2.9,0.4,5.8,0.8,8.7,1.1c1.9,0.3,9.3,0.3,10.4,1.9C329.3,275.4,333.7,272.9,331.9,270.2L331.9,270.2z"/>
	</g>
</g>
<g>
	<g>
		<path data-async data-start="0" data-duration="200"
class="st1" d="M322.3,282.7c-2.6,2.8-9.6,2.7-13,3.1c-4.1,0.5-8.3,1-12.4,1.3c-8.6,0.7-17.2,1-25.8,0.9c-3.2,0-3.2,5,0,5
			c10.5,0.1,21-0.4,31.5-1.4c4.7-0.5,9.4-1.1,14.1-1.8c3.4-0.5,6.8-0.9,9.2-3.5C328,283.9,324.5,280.3,322.3,282.7L322.3,282.7z"/>
	</g>
</g>
<g>
	<g>
		<path data-async data-start="0" data-duration="200"
class="st1" d="M321.9,266.1c-3.6,1.8-7.3,3.7-10,6.7c-3.3,3.6-3,7.7-4.8,11.9c-1.3,2.9,3,5.5,4.3,2.5c1.6-3.5,1.4-7.9,4.1-10.9
			c2.4-2.7,5.9-4.4,9-5.9C327.3,269,324.8,264.7,321.9,266.1L321.9,266.1z"/>
	</g>
</g>
<g>
	<g>
		<path data-async data-start="0" data-duration="200"
class="st1" d="M302.9,267.4c-11.2-0.4-16.7,10.5-18.2,20.1c-0.5,3.1,4.3,4.5,4.8,1.3c1.1-7.3,4.5-16.7,13.4-16.4
			C306.2,272.5,306.2,267.5,302.9,267.4L302.9,267.4z"/>
	</g>
</g>
<g>
	<g>
		<path data-async data-start="0" data-duration="200"
class="st1" d="M298.3,242.2c-9.7,8.5-18.2,19.8-24.6,31c-7.2,12.7-8.1,25.2-6.8,39.5c0.3,3.2,5.3,3.2,5,0c-0.6-7-1.3-14.1-0.1-21.1
			c1.1-6.2,3.8-12,7-17.4c6.2-10.4,13.9-20.6,23-28.5C304.3,243.6,300.7,240.1,298.3,242.2L298.3,242.2z"/>
	</g>
</g>
<g>
	<g>
		<path data-async data-start="0" data-duration="200"
class="st1" d="M304.8,241.9c-5-5.9-12.8-14-20.1-7.1c-4.2,4-7.7,8.9-11.5,13.3c-4,4.7-8.1,9.4-12.1,14.2c-6.6,8-12.8,16.7-15.5,26.9
			c-2.7,10.2-1.8,20.7,2.4,30.3c0.3,0.8,1.4,1.3,2.2,1.2c6.2-0.2,11.9-1.6,17.5-4c2.9-1.3,0.4-5.6-2.5-4.3c-4.8,2.1-9.8,3.2-15,3.4
			c0.7,0.4,1.4,0.8,2.2,1.2c-7.9-18.3,0-36.1,11.8-50.5c5.5-6.8,11.3-13.4,17-20c2.3-2.7,6-9.2,9.7-9.3c3.9-0.1,8.1,5.3,10.5,8.1
			C303.4,247.9,306.9,244.3,304.8,241.9L304.8,241.9z"/>
	</g>
</g>
<g>
	<g>
		<path data-async data-start="0" data-duration="200"
class="st1" d="M263.1,259.2c-66-15.9-128.6-46.1-180.9-89.6c-14.6-12.2-29-25.7-36.3-43.7c-1.2-2.9-6-1.7-4.8,1.3
			c6.3,15.5,17.2,27.9,29.5,38.9c12.7,11.4,26.4,21.8,40.6,31.5c28.8,19.7,59.9,35.8,92.5,48.3c19,7.3,38.5,13.3,58.2,18.1
			C264.9,264.8,266.3,260,263.1,259.2L263.1,259.2z"/>
	</g>
</g>
<g>
	<g>
		<path data-async data-start="0" data-duration="200"
class="st1" d="M40.9,112.6c-2.2,37,8.9,74.1,31.3,103.6c24.2,31.9,59.1,50.5,97.5,59.9c24.2,5.9,49,8.5,73.8,10.6c3.2,0.3,3.2-4.7,0-5
			c-41.5-3.4-85-8.5-122-29c-31.3-17.4-55.3-46.3-67.2-80c-6.8-19.3-9.6-39.6-8.4-60C46.1,109.4,41.1,109.4,40.9,112.6L40.9,112.6z"
			/>
	</g>
</g>
<g>
	<g>
		<path data-async data-start="0" data-duration="200"
class="st1" d="M97.6,262.1c6-0.9,12-2.2,17.9-3.7c3.1-0.8,1.8-5.6-1.3-4.8c-5.9,1.5-11.9,2.8-17.9,3.7C93.1,257.8,94.4,262.6,97.6,262.1
			L97.6,262.1z"/>
	</g>
</g>
<g>
	<g>
		<path data-async data-start="0" data-duration="200"
class="st1" d="M111.8,286.1c23.6,1,47.2-1.6,70.1-7.4c3.1-0.8,1.8-5.6-1.3-4.8c-22.5,5.8-45.6,8.2-68.8,7.3
			C108.6,281,108.6,286,111.8,286.1L111.8,286.1z"/>
	</g>
</g>
<g>
	<g>
		<path data-async data-start="0" data-duration="200"
class="st1" d="M129.6,118.7c-4.3-10.7-6-22.2-4.7-33.6c1.2-11.2,5-24.8,13.9-32.2c17.2-14.3,44.8-11.9,64-3.6
			c10.4,4.5,21.7,10.7,24.6,22.5c2.9,11.8-1.1,23.7-1.9,35.5c-0.3,4.8-0.2,9.7,1.7,14.3c2,4.9,6,10.1,3.9,15.7
			c-1.8,4.9-8.2,4.3-11.3,8.1c-2.5,3-2.7,7.1-2.5,10.9c0.2,3.5,1.2,7.6-0.8,10.8c-2,3.4-6.1,4.5-9.7,4.9c-6.8,0.7-13.8,0.1-20.5,0.2
			c-14.2,0-28.4,0-42.6,0c0.8,0.8,1.7,1.7,2.5,2.5c0.4-5.7,0.5-12.5-3.9-16.9c-5.2-5.3-14.1-6.3-20.3-10.2c-9.3-5.9-2-17.8,0.8-25.4
			c2.7-7.3,4.4-14.6,2.3-22.3c-0.9-3.1-5.7-1.8-4.8,1.3c2.5,8.9-1.4,17.3-4.6,25.4c-2.4,5.9-5,12.7-2.2,18.9
			c2.8,6.1,9.7,8.3,15.4,10.7c3.7,1.6,9.1,3,11.1,6.8c1.9,3.5,1.4,7.9,1.2,11.6c-0.1,1.3,1.2,2.5,2.5,2.5c14.8,0,29.7,0,44.5,0
			c9.9,0,26.5,2.9,32.6-7.5c2.7-4.6,1.4-9.7,1.4-14.7c-0.1-4.9,1.8-7,6.3-8.8c2.3-0.9,4.1-1.9,5.6-3.9c2.6-3.5,3-8,2-12.1
			c-0.6-2.8-1.9-5.3-3.1-7.8c-1.8-3.7-2.6-7-2.6-11.1c0-13.4,4.9-26.5,2-39.8c-2.6-12-12.1-19-22.6-24.2
			c-20.9-10.5-47.3-13.3-68.5-1.8c-12.2,6.7-18,20.2-20.5,33.3c-2.6,13.9-1.3,28.4,4,41.5C125.9,123,130.8,121.7,129.6,118.7
			L129.6,118.7z"/>
	</g>
</g>
<g>
	<g>
		<path data-async data-start="0" data-duration="200"
class="st1" d="M174.1,119.1c-2.2,5.8-4.5,11.6-6.7,17.5c-1.3,3.5-3,8.2-1.4,11.9c1.1,2.5,3.7,3.6,6.3,2.7c1.6-0.5,3-1.7,4.1-3
			c0.5-0.5,0.9-1.1,1.3-1.7c0.4-0.6,0.8-1.2,1.1-1.9c0.6-0.8,0.4-0.9-0.4-0.2c-0.9-0.4-1.9-0.8-2.8-1.1c2.2,3.6,3.3,7.6,7.9,9.1
			c3.3,1.1,6-1.1,7-4.3c3.4-11.2-7.7-21.7-10.7-31.6c-0.9-3.1-5.8-1.8-4.8,1.3c1.9,6.1,5.6,11.2,8.3,16.9c1.1,2.2,4.4,9.6,2.4,12
			c-2.2,2.7-4.8-4.6-5.7-6c-0.6-0.9-1.8-1.5-2.8-1.1c-1.8,0.6-2,1.6-2.9,3.1c-0.8,1.3-1.5,3-3,2.6c-1.8-0.5-0.2-3.9,0.2-5.2
			c2.2-6.7,5-13.2,7.5-19.8C180.1,117.4,175.3,116.1,174.1,119.1L174.1,119.1z"/>
	</g>
</g>
<g>
	<g>
		<path data-async data-start="0" data-duration="200"
class="st1" d="M137.8,96.6c-2.1,4.9-3.8,10.6-0.1,15.2c1.5,1.8,3.6,2.7,5.1,4.4c1.6,1.7,2.3,3.6,4.4,4.9c10.5,6.4,18.3-10.5,18.5-18.6
			c0.1-5.5-4.6-7.8-9.2-9.5c-4.4-1.7-11.1-2.5-13.9,2.4c-2.2,3.9-1,10.8,2.4,13.7c4.4,3.7,10.3,1.7,12-3.6c2-6.1-7.7-8.8-9.6-2.7
			c3.3,0.2,4.7-0.8,4.3-3c-1.2,1.6-0.9,2.3,0.8,2.3c0.2,0.1,4.3,1.7,4.2,2c-0.8-2-1.3-2.1-1.3-0.1c-0.2,0.9-0.5,1.8-0.8,2.7
			c-0.6,1.6-1.3,3.1-2.3,4.5c-0.3,0.5-0.6,0.9-1.1,1.3c1.2,0.4,1.4,0.1,0.4-0.8c-0.3-1-1.7-2.4-2.4-3.1c-0.9-0.9-2.7-1.6-3.4-2.5
			c-1-1.4-0.3-2.7,0.4-4.3C148.9,95.8,140.3,90.7,137.8,96.6L137.8,96.6z"/>
	</g>
</g>
<g>
	<g>
		<path data-async data-start="0" data-duration="200"
class="st1" d="M191.2,104.5c1.8,5.3,3.3,12.9,8.2,16.3c4.3,3,10,2.6,13.9-1c4.4-4.1,4-10.8,4.3-16.3c0.4-6.4-3.2-8.5-8.8-10.2
			c-4.5-1.3-12-5-16.1-1.3c-3.6,3.3-2.7,10.7-1.1,14.7c1.8,4.5,5.8,8.4,10.9,8.2c5.4-0.2,9-5.6,7.4-10.7c-1.9-6.1-11.6-3.5-9.6,2.7
			c1.8-1.1,2.1-2.1,1-3c-0.4-0.6-0.6-1.3-0.7-2c-0.2-0.9-0.6-3,0-3.8c-1,0.8-2,1.5-3,2.3c-1.6-0.2-1.4-0.1,0.6,0.3
			c0.8,0.2,1.6,0.4,2.4,0.6c1.6,0.4,3.2,0.9,4.8,1.4c0.8,0.2,1.6,0.5,2.4,0.7c2.2,0.9,2.1,0.6-0.1-0.7c-0.2,0-0.3,4.6-0.3,4.9
			c-0.1,1.7,0,6.8-2.7,4.4c-2-1.8-3-7.7-3.8-10.1C198.8,95.8,189.2,98.4,191.2,104.5L191.2,104.5z"/>
	</g>
</g>
</svg>
