<?xml version="1.0" encoding="utf-8"?>
<!-- Generator: Adobe Illustrator 23.0.2, SVG Export Plug-In . SVG Version: 6.00 Build 0)  -->
<svg version="1.1" xmlns="http://www.w3.org/2000/svg" xmlns:xlink="http://www.w3.org/1999/xlink" x="0px" y="0px"
	 viewBox="0 0 360 360" style="enable-background:new 0 0 360 360;" xml:space="preserve">
<g id="Layer_1">
	<g>
		<g>
			<path data-async data-start="0" data-duration="200"
  class="st0" d="M116.3,74c-0.5,8,3.2,16.4,7.9,22.8c4.9,6.6,13.1,9.8,17.6,16.8c1.8,2.7,6.1,0.2,4.3-2.5c-3.9-5.9-9.6-9.1-14.7-13.7
				c-6-5.5-10.7-15-10.2-23.2C121.5,70.8,116.5,70.8,116.3,74L116.3,74z"/>
		</g>
	</g>
	<g>
		<g>
			<path data-async data-start="0" data-duration="200"
  class="st0" d="M69.6,81.4c9.5-4.6,19.8-6.6,29.7-10.1c3.8-1.4,8.8-5.3,12.9-3c3,1.7,3.8,6.7,5.3,9.6c1.5,2.8,5.9,0.3,4.3-2.5
				c-1.9-3.6-2.7-8.3-6.2-10.8c-3.6-2.5-8-2.3-11.8-0.6c-12,5.1-24.9,7.4-36.7,13.2C64.2,78.5,66.7,82.8,69.6,81.4L69.6,81.4z"/>
		</g>
	</g>
	<g>
		<g>
			<path data-async data-start="0" data-duration="200"
        class="st1" d="M219.4,113.8c-6.3-17.6,16.3-26.6,28.2-33.7c18.3-11,27.4-29.4,35.3-48.4c1.2-3-3.6-4.3-4.8-1.3
				c-4.6,11.1-9.5,22.5-17.3,31.9c-6.4,7.7-14.3,12.8-22.9,17.7c-12.8,7.3-29.5,18-23.3,35.3C215.7,118.1,220.5,116.8,219.4,113.8
				L219.4,113.8z"/>
		</g>
	</g>
	<g>
		<g>
			<path data-async data-start="0" data-duration="200"
        class="st1" d="M266.4,130.3c-0.5-2.8,2.1-6.4,3.4-8.7c2-3.4,4.3-6.7,6.4-10c4.7-7.3,7-14.9,8.7-23.4c1.9-9.3,2.3-19,2.6-28.5
				c0.4-9.5,0.3-19.5-2.9-28.6c-1-3-5.9-1.7-4.8,1.3c3.3,9.5,3.1,19.8,2.6,29.7c-0.5,10.8-1.2,21.4-4,31.8c-2.2,8-5.8,14-10.3,20.9
				c-3,4.7-7.6,10.8-6.6,16.7C262.1,134.8,266.9,133.4,266.4,130.3L266.4,130.3z"/>
		</g>
	</g>
	<g>
		<g>
			<path data-async data-start="0" data-duration="200"
        class="st1" d="M164.9,211.3c-4.2,1.8-4.8,6.2-1.6,9.4c4.4,4.4,9.5,2.5,14.6,0.9c3.6-1.1,9.4,1.1,12.3-2c3.2-3.5-0.9-7.2-4.1-8.4
				c-5.7-2-16.4-4.8-21.7-0.6c-2.7,2.2-2.4,6.4,0,8.7c2.5,2.4,8,2.6,11.1,1.8c4.2-1.1,4.7-5.8,1.8-8.6c-3.2-3.1-8.8-3.7-11.2,0.6
				c-0.5,1-0.4,2.2,0.4,3c4.4,4.4,12.7,3,18.3,3.8c3.1,0.5,4.5-4.3,1.3-4.8c-2.5-0.4-5.1-0.5-7.6-0.7c-2.4-0.2-6.6,0-8.5-1.9
				c0.1,1,0.3,2,0.4,3c0.7-1.3,2.6-0.2,3.3,0.4c1.1,1-0.3,0.4-1.5,0.4c-0.7,0-5.5-0.1-4.8-1.9c0.8-2,8.8-0.6,10.3-0.3
				c1.8,0.4,3.7,0.8,5.5,1.4c0.8,0.2,3.8,0.6,1.7,0.6c-1.1,0-2.1-0.2-3.2-0.2c-2.7-0.1-5,0.8-7.6,1.7c-1.9,0.6-4,1.5-6,0.5
				c-1.5-0.7-2.7-1.8-0.8-2.6C170.4,214.3,167.8,210,164.9,211.3L164.9,211.3z"/>
		</g>
	</g>
	<g>
		<g>
			<path data-async data-start="0" data-duration="200"
        class="st1" d="M197.1,255.1c31.4-9.4,35.2,33.7,33.8,54.8c-0.2,3.2,4.8,3.2,5,0c1.6-24.8-4.7-70.2-40.1-59.6
				C192.7,251.2,194,256.1,197.1,255.1L197.1,255.1z"/>
		</g>
	</g>
	<g>
		<g>
			<path data-async data-start="0" data-duration="200"
        class="st1" d="M213.3,223.3c17.3,1.4,29.8,14.1,33.1,30.9c2.1,10.5-1,19.3-4,29.2c-2.8,9.2-8.2,17.9-9.5,27.5c-0.4,3.2,4.6,3.2,5,0
				c0.8-6.2,3.9-11.8,6.3-17.5c2.1-5.1,3.6-10.5,5.3-15.7c3.2-10.1,3.6-20.1,0.4-30.3c-5.3-16.6-19.2-27.7-36.5-29.1
				C210.1,218,210.1,223,213.3,223.3L213.3,223.3z"/>
		</g>
	</g>
	<g>
		<g>
			<path data-async data-start="0" data-duration="200"
        class="st1" d="M140.4,218.3c-8.8-1-17.4-2.4-23.6,5.3c-4.9,6.1-7.9,14.1-10.3,21.5c-2.7,8.6-2.7,17.9-0.5,26.6
				c2.4,9.5,9.3,16.9,11.8,26.3c0.8,3.1,5.7,1.8,4.8-1.3c-2-7.4-6.6-13.5-9.7-20.4c-3.6-7.9-4.5-17.8-2.6-26.2
				c1.5-6.6,4.2-13.3,7.6-19.2c2.1-3.6,4.5-7.1,8.8-8.2c4.4-1.2,9.3,0.2,13.7,0.7C143.6,223.6,143.6,218.6,140.4,218.3L140.4,218.3z
				"/>
		</g>
	</g>
	<g>
		<g>
			<path data-async data-start="0" data-duration="200"
        class="st1" d="M150.8,247.8c-25.3,3.4-26.9,39.5-33.2,58.3c-1,3.1,3.8,4.4,4.8,1.3c3.4-10.3,5.2-21,8.6-31.2
				c3.2-9.5,8.4-21.9,19.8-23.4C153.9,252.4,154,247.3,150.8,247.8L150.8,247.8z"/>
		</g>
	</g>
	<g>
		<g>
			<path data-async data-start="0" data-duration="200"
        class="st1" d="M213.5,254.9c0.9,25.7-31.5,37.6-31.2,63.8c0,3.2,5,3.2,5,0c-0.3-25.6,32.1-37.4,31.2-63.8
				C218.4,251.6,213.4,251.6,213.5,254.9L213.5,254.9z"/>
		</g>
	</g>
	<g>
		<g>
			<path data-async data-start="0" data-duration="200"
        class="st1" d="M135.9,257.4c-7.4,26.6,25.7,48,46,57.2c2.9,1.3,5.5-3,2.5-4.3c-10.5-4.8-20.6-11.2-29.2-19c-9-8.2-18-19.7-14.5-32.6
				C141.6,255.6,136.8,254.3,135.9,257.4L135.9,257.4z"/>
		</g>
	</g>
	<g>
		<g>
			<path data-async data-start="0" data-duration="200"
        class="st1" d="M154.1,148.5c-3.1-3.1-4.4-7-8.5-9.2c-4.2-2.2-9.2-2.6-13.9-2.6c-3.4,0-6.9,0.1-9.6,2.4c-3.3,2.8-4.5,7.5-6.8,11
				c-0.8,1.1,0.2,2.9,1.6,2.8c4.2-0.3,11.1-3.2,11.6,3.2c0.2,2.4,3.9,2.4,3.8,0c-0.7-9.5-8.3-7.5-15.3-6.9c0.5,0.9,1.1,1.9,1.6,2.8
				c1.6-2.5,2.6-5.3,4.2-7.8c2.5-3.9,6-3.9,10.2-3.8c4.5,0.1,9.9,0.5,13.3,3.9c2,2,3.2,4.8,5.2,6.8
				C153.1,152.9,155.8,150.2,154.1,148.5L154.1,148.5z"/>
		</g>
	</g>
	<g>
		<g>
			<path data-async data-start="0" data-duration="200"
        class="st1" d="M130.3,154.7c-6.4-4.5-15.4,2.9-19.9,7.2c-4.8,4.6-8.2,15.1-2,19.9c1.9,1.5,4.5-1.2,2.7-2.7c-4.9-3.9-1-11.9,2.6-15.2
				c3.1-2.8,10.4-9.1,14.7-6C130.3,159.3,132.2,156.1,130.3,154.7L130.3,154.7z"/>
		</g>
	</g>
	<g>
		<g>
			<path data-async data-start="0" data-duration="200"
        class="st1" d="M115.4,182.5c-5.8-7.3,9.1-12.2,14-13.8c4-1.2,8.3-2.5,12.4-2.6c3.9-0.2,6,0.8,8.8,3.3c1.1,1,1.9,2,3.5,2.3
				c11.9,2.3,7.9-28.3-4.9-29c-2.4-0.1-2.4,3.6,0,3.8c4.6,0.2,6.5,6,7.5,9.7c0.5,1.8,0.9,3.7,1,5.7c0,0.9,0.2,2.9-0.2,3.5
				c-1.3,0.6-2.5,1.2-3.8,1.8c-0.3-0.4-0.7-0.8-1-1.1c-3.3-2.2-5.7-3.7-10-3.6c-3.9,0-7.9,1-11.6,2c-8.4,2.3-27.4,9.3-18.2,20.8
				C114.2,187,116.9,184.4,115.4,182.5L115.4,182.5z"/>
		</g>
	</g>
	<g>
		<g>
			<path data-async data-start="0" data-duration="200"
        class="st1" d="M196.7,149.6c2.5-2.6,3.8-6.5,6.9-8.5c3.5-2.2,8.1-2.7,12.1-3c4-0.3,7.7-0.6,10.6,2.6c2.3,2.6,3.6,5.9,5.7,8.6
				c0.4-1.1,0.9-2.1,1.3-3.2c-7-0.3-15.6-2.2-15.8,7.5c-0.1,2.4,3.7,2.4,3.8,0c0.1-6.5,7.7-3.9,12-3.7c1.8,0.1,2.2-2,1.3-3.2
				c-2.7-3.4-4.1-7.9-7.7-10.5c-3.2-2.4-7.5-2.1-11.3-1.8c-4.3,0.3-8.8,0.8-12.7,2.8c-4.5,2.3-5.7,6.4-9,9.8
				C192.4,148.7,195,151.3,196.7,149.6L196.7,149.6z"/>
		</g>
	</g>
	<g>
		<g>
			<path data-async data-start="0" data-duration="200"
        class="st1" d="M221.4,155.4c4.5-3.4,12,2.3,15.6,5c4,3,9.6,11.1,4.3,15.4c-1.9,1.5,0.8,4.2,2.7,2.7c6.4-5.2,2-15.7-3.3-20
				c-4.9-4-14.8-11.1-21.2-6.3C217.7,153.6,219.5,156.8,221.4,155.4L221.4,155.4z"/>
		</g>
	</g>
	<g>
		<g>
			<path data-async data-start="0" data-duration="200"
        class="st1" d="M239.9,181.6c9-11.7-12.5-17.9-20.3-19.6c-7-1.6-16.9-3.8-22.6,1.9c-1.5,1.5-0.7,1.8-3.5,0.8c-2.6-0.9-2.5-1.2-2.6-3.7
				c-0.1-1.7,0.1-3.5,0.4-5.2c0.8-4.1,2.6-10.7,7.6-11.1c2.4-0.2,2.4-4,0-3.8c-7.8,0.7-10.7,9.2-11.6,15.9c-0.6,5,1,16.4,8.9,12.9
				c1.5-0.7,2.3-2.1,3.4-3.2c2.9-2.6,6.9-2.7,10.6-2.4c4.1,0.4,8.3,1.3,12.3,2.4c5.2,1.4,19.9,5.5,14,13.1
				C235.2,181.6,238.4,183.5,239.9,181.6L239.9,181.6z"/>
		</g>
	</g>
</g>
<g id="Layer_2">
	<g>
		<g>
			<path data-async data-start="0" data-duration="200"
        class="st1" d="M107.8,180.8c0.7,2.3,2.5,3.7,4.2,5.1c0.8,0.6,1.9,0.8,2.7,0c0.7-0.7,0.8-2,0-2.7c-1.2-0.9-2.8-2-3.3-3.4
				C110.7,177.5,107.1,178.5,107.8,180.8L107.8,180.8z"/>
		</g>
	</g>
	<g>
		<g>
			<path data-async data-start="0" data-duration="200"
        class="st1" d="M241.3,176c-0.3,0.5-0.8,0.9-1.4,1.3c-0.8,0.5-1.6,1-2.2,1.7c-0.7,0.7-0.7,2,0,2.7c0.7,0.7,1.9,0.7,2.7,0
				c0.5-0.4,1.3-0.9,2-1.4c0.9-0.6,1.7-1.3,2.2-2.3C245.7,175.8,242.4,173.9,241.3,176L241.3,176z"/>
		</g>
	</g>
	<g>
		<g>
			<path data-async data-start="0" data-duration="200"
        class="st1" d="M198,143.3c0.3,1.7-0.6,1.1,0.3,0.8c0.3-0.1,0.5-0.3,0.8-0.4c0.6-0.3,1.2-0.5,1.8-0.7c2-0.8,3.9-1.9,6-2.5
				c3.1-0.9,1.8-5.7-1.3-4.8c-2.9,0.8-5.6,2.3-8.3,3.5c-2.3,1-4.6,2.7-4.1,5.5C193.8,147.8,198.6,146.5,198,143.3L198,143.3z"/>
		</g>
	</g>
	<g>
		<g>
			<path data-async data-start="0" data-duration="200"
        class="st1" d="M151.4,150.7c0.6,0.3,0.9,1.4,1.2,2c0.6,1,1.2,2,1.7,3.1c1,1.9,2.4,4,3.1,6.1c0.7,2.3,4.3,1.3,3.6-1
				c-0.8-2.7-2.5-5.3-3.9-7.8c-1-1.8-2-4.6-3.9-5.6C151.2,146.3,149.3,149.5,151.4,150.7L151.4,150.7z"/>
		</g>
	</g>
	<g>
		<g>
			<path data-async data-start="0" data-duration="200"
        class="st1" d="M65.9,78.5c-0.1,6.1-0.4,11.7,1.9,17.4c2.3,5.8,5,11.1,8.5,16.2c5.2,7.5,10.4,17,21.1,15.6c10.6-1.4,12.6-12.6,12.9-21.5
				c0.2-6.7,0.9-12.8,2.8-19.3c1.9-6.4,3.8-12.7,3.9-19.4c0-3.2-5-3.2-5,0c-0.1,10.1-5,19.1-6.2,29c-0.9,7.5,2,23.4-7.9,26.1
				c-9.2,2.4-14.3-8.7-18.5-14.8c-2.7-4-4.6-8.3-6.5-12.7c-2.4-5.5-2-10.8-2-16.6C71,75.3,66,75.3,65.9,78.5L65.9,78.5z"/>
		</g>
	</g>
	<g>
		<g>
			<path data-async data-start="0" data-duration="200"
        class="st1" d="M194.8,145.7c-2.1,1.5-3.9,4.2-5,6.5c-1.4,2.6-1.5,5.6-2.4,8.4c-0.7,2.3,2.9,3.3,3.6,1c0.6-2.1,0.8-4.3,1.5-6.3
				c0.5-1.4,1.3-2.4,2.1-3.6c0.6-0.9,1.2-2.1,2.1-2.7C198.6,147.5,196.7,144.2,194.8,145.7L194.8,145.7z"/>
		</g>
	</g>
</g>
</svg>
