<?xml version="1.0" encoding="utf-8"?>
<!-- Generator: Adobe Illustrator 23.0.2, SVG Export Plug-In . SVG Version: 6.00 Build 0)  -->
<svg version="1.1" id="Layer_1" xmlns="http://www.w3.org/2000/svg" xmlns:xlink="http://www.w3.org/1999/xlink" x="0px" y="0px"
	 viewBox="0 0 360 360" style="enable-background:new 0 0 360 360;" xml:space="preserve">
<g>
	<g>
		<path data-async data-start="0" data-duration="200"
class="st1" d="M159.2,157.8c3.1,4.2,8.3,5.1,11.7,8.8c2.2,2.4,5.7-1.2,3.5-3.5c-1.6-1.7-3.5-2.9-5.5-4c-1.9-1-4.1-2-5.4-3.8
			C161.6,152.7,157.3,155.2,159.2,157.8L159.2,157.8z"/>
	</g>
</g>
<g>
	<g>
		<path data-async data-start="0" data-duration="200"
class="st1" d="M161.5,159.3c7.4,0,14.9,0.1,22.3,0.1c-0.4-1.6-0.8-3.1-1.3-4.7c-3.6,2.5-7.2,5.2-10.7,7.9c-2.5,2,1,5.5,3.5,3.5
			c3.2-2.5,6.4-4.8,9.7-7.1c2-1.4,1.4-4.6-1.3-4.7c-7.4,0-14.9-0.1-22.3-0.1C158.3,154.3,158.3,159.3,161.5,159.3L161.5,159.3z"/>
	</g>
</g>
<g>
	<g>
		<path data-async data-start="0" data-duration="200"
class="st1" d="M141.3,123.8c-3.2,0.2-4.1,2.7-4.4,5.6c-0.3,3-0.6,6.5,0.8,9.3c2.8,5.6,12.9,5.1,17.3,1.8c5-3.6,3.9-10.5-0.4-14.2
			c-3.7-3.1-13.2-6.7-16.6-1.6c-1.8,2.7,2.5,5.2,4.3,2.5c0.6-0.9,6.8,1.5,7.6,1.9c2.5,1.3,5.2,4.8,2.4,7.3c-1.9,1.7-7.3,2.1-9.4,0.6
			c-1.5-1-2-7.5-0.5-8.8c-0.6,0.2-1.2,0.5-1.8,0.7c0.2,0,0.4,0,0.7,0C144.5,128.5,144.5,123.5,141.3,123.8L141.3,123.8z"/>
	</g>
</g>
<g>
	<g>
		<path data-async data-start="0" data-duration="200"
class="st1" d="M204.2,125.9c-4.9,0.6-8.5,4.8-8,9.9c0.5,5.2,5.1,9.8,10.1,10.8c5.1,1,9.7-2.1,9.9-7.4c0.2-5.4-4.1-11-9-12.9
			c-3-1.1-4.3,3.7-1.3,4.8c2.5,0.9,4.7,4,5.2,6.6c0.6,3-1.4,4.7-4.3,3.9c-2.2-0.7-4.5-2.6-5.3-4.8c-0.8-2.2-0.1-5.5,2.6-5.8
			C207.4,130.5,207.4,125.5,204.2,125.9L204.2,125.9z"/>
	</g>
</g>
<g>
	<g>
		<path data-async data-start="0" data-duration="200"
class="st1" d="M117.8,104.1c-4.1-1.1-4.6-6.5-3.5-9.9c1.4-4.6,3.9-3.7,7.5-4.7c2.1-0.5,3-1.5,3.9-3.3c0.8-1.5,1.1-3.2,2-4.6
			c0.5-0.6,0.9-1.3,1.4-1.9c1.2-1.9,2.1-2.2,2.7-1c1.2,0.2,1.9,1.7,3.6,1.2c2.1-0.6,2.9-3.1,4.8-4.1c2.5-1.3,8.6-2,11.1-0.4
			c3.2,2,2.7,7,2.4,10.2c-0.2,3.2,4.8,3.2,5,0c0.7-9.5-2.8-16.4-13.2-15.9c-3.4,0.2-8.9,0.9-10.9,4.2c-1.2,2-0.2,0.1,0.6,1.2
			c-0.5-0.6-1.2-1.2-1.9-1.6c-1.5-0.7-3.3-0.4-4.8,0.3c-1.8,0.9-3.4,2.4-4.5,4c-1.2,1.7-1.7,4.7-3,6.1c-1.3,1.4-4.6,0.9-6.4,1.8
			c-1.6,0.8-3,2.1-3.9,3.7c-4,6.4-2.6,17.3,5.5,19.6C119.6,109.8,120.9,104.9,117.8,104.1L117.8,104.1z"/>
	</g>
</g>
<g>
	<g>
		<path data-async data-start="0" data-duration="200"
class="st1" d="M157.7,88.7c15.5-10.9,39.1-2.7,53.9,5.6c2.8,1.6,5.3-2.7,2.5-4.3c-16.3-9.2-41.9-17.6-58.9-5.6
			C152.6,86.2,155.1,90.5,157.7,88.7L157.7,88.7z"/>
	</g>
</g>
<g>
	<g>
		<path data-async data-start="0" data-duration="200"
class="st1" d="M112.8,109.1c-5.1,6.9-9.5,14.7-5.9,23.3c2.2,5.2,2.6,8.8,0.6,14.2c-1.6,4.4-3.7,8.5-4.4,13.2c-0.4,3-0.4,6.4,1.9,8.6
			c3.2,3,8.7,4.6,12.6,6.4c2,1,4.2,1.8,6,3.1c2.3,1.7,1.9,4.1,2.9,6.3c1.5,3.3,4.2,3.3,7.5,3.7c11,1.4,21.7,2.1,32.8,1
			c10.8-1.1,20.8,3.1,31.6,3.1c8.9,0,19.9-1.4,27.1-7c2.1-1.6,3.6-2.6,6.1-1.6c1.7,0.7,2.9,1.7,4.8,2c3.3,0.4,6.5-1.1,8.9-3.4
			c3.5-3.3,6-8.3,7.9-12.7c2.2-5.2,1.7-10.5,2.6-16c1.7-11.1,7-21.3,2.2-32.4c-1.3-2.9-5.6-0.4-4.3,2.5c4.1,9.5-1.3,19.4-2.8,28.9
			c-0.6,4-0.3,8.2-1.3,12.2c-1.1,4.2-3.7,9-6.4,12.4c-2,2.5-4.4,4.2-7.7,2.9c-1.4-0.5-2.6-1.8-4.1-2.3c-2.5-0.9-4.5-0.3-6.6,1.3
			c-3.6,2.9-6.5,4.8-11,6c-5,1.4-10.1,2.1-15.3,2.1c-8.6,0-16.7-3.4-25.2-3.5c-9.1-0.1-17.8,1.5-26.9,0.7c-2.5-0.2-5-0.5-7.5-0.8
			c-1.6-0.2-4.2,0-5.6-0.7c-2.7-1.2-3.1-5.9-5.4-8c-5.1-4.5-19.7-6.3-19.8-14c-0.1-7.8,6.5-14.3,6-22.4c-0.3-4.3-3.4-7.7-3.6-11.9
			c-0.3-5.5,3.6-10.7,6.7-14.9C119.1,109,114.7,106.5,112.8,109.1L112.8,109.1z"/>
	</g>
</g>
<g>
	<g>
		<path data-async data-start="0" data-duration="200"
class="st1" d="M218.8,186.6c12.1,15.9,4.3,36.3,2.4,54.1c-0.2,2.3-0.3,4.6-0.4,7c-0.2,3.4-1.5,4.1-3.1,6.7c-1.3,2.2-1.3,4.3,0.2,6.4
			c4,5.7,14.6,6.9,20.9,7.4c3.6,0.3,8,0.7,11.5-0.6c3.3-1.3,4.3-5,5.4-8c1.5-4.2,2.7-8.5,2.5-13c-0.3-4.9-1.9-9.5-1.8-14.4
			c0.1-9.6,0.7-18.2-2.3-27.5c-2.7-8.7-7-16.7-11.2-24.7c-1.5-2.8-5.8-0.3-4.3,2.5c3.9,7.4,7.8,14.8,10.4,22.7
			c2.7,8.4,2.7,16.3,2.4,25.1c-0.3,8.4,3,16.3,0.6,24.5c-1.5,5.1-3.9,8.6-9.7,8.6c-4.5-0.1-8.9-0.7-13.2-2c-1.5-0.5-4.4-1.2-5.6-2.2
			c-2.7-2.3-0.9-2.4,0.3-4.1c1.5-2.2,1.8-4.8,2-7.4c0.6-8.3,1.9-16.3,3.2-24.5c2.1-13.3,2.7-27.8-5.9-39.1
			C221.2,181.6,216.9,184.1,218.8,186.6L218.8,186.6z"/>
	</g>
</g>
<g>
	<g>
		<path data-async data-start="0" data-duration="200"
class="st1" d="M121.2,248.5c-6.4,1.9-7.7-16.6-7.9-20.1c-0.3-6.6,0.4-13.3,2.1-19.7c1.5-5.5,4.4-10.8,4.8-16.6c0.5-6.2-2.8-11.9-2-18
			c0.4-3.2-4.6-3.2-5,0c-0.4,3.6,0.3,6.9,1.1,10.4c1.1,4.9,1,8.9-0.6,13.7c-2.7,8-5,15.5-5.4,23.9c-0.4,7.9,0.3,35.2,14.2,31.2
			C125.7,252.5,124.3,247.6,121.2,248.5L121.2,248.5z"/>
	</g>
</g>
<g>
	<g>
		<path data-async data-start="0" data-duration="200"
class="st1" d="M219.1,286c6.4-5.5,11.9-12.1,17.7-18.2c2.2-2.3-1.3-5.9-3.5-3.5c-5.8,6.1-11.4,12.7-17.7,18.2
			C213.1,284.5,216.7,288.1,219.1,286L219.1,286z"/>
	</g>
</g>
<g>
	<g>
		<path data-async data-start="0" data-duration="200"
class="st1" d="M197.7,248.3c7.6-11,2.3-24.1-1.2-35.5c-1.6-5.1-3.5-9.5-7.8-12.9c-5-3.9-11.4-5.7-17.6-6.7c-5.6-0.9-13.6-2.4-18.9,0.4
			c-4.5,2.4-6.6,8.4-8.2,12.9c-4.4,12.2-4.4,25.6-0.3,37.9c1,3,5.8,1.7,4.8-1.3c-3.1-9.3-3.8-19.2-1.6-28.9c1-4.4,2.4-10.3,5.4-13.9
			c4.1-5,13.7-3.1,19.3-2c4.4,0.8,8.9,2.1,12.7,4.6c4.6,3.1,6.2,7.6,7.8,12.7c3,9.7,7.8,20.8,1.3,30.2
			C191.5,248.4,195.8,250.9,197.7,248.3L197.7,248.3z"/>
	</g>
</g>
<g>
	<g>
		<path data-async data-start="0" data-duration="200"
class="st1" d="M106.4,168.5c-3.8,8.9-5.4,18.2-6.9,27.7c-1.6,10.4-3.9,20.6-7.2,30.7c-2.2,6.8-5.1,15.4,0.4,21.5
			c5.9,6.6,15.3,5.2,23.1,3.5c3.1-0.7,1.8-5.5-1.3-4.8c-7.9,1.7-20.8,2.8-19.9-9.1c0.6-7.5,4.4-15.1,6.2-22.3
			c3.7-14.7,3.9-30.6,9.9-44.6C112,168.1,107.7,165.6,106.4,168.5L106.4,168.5z"/>
	</g>
</g>
<g>
	<g>
		<path data-async data-start="0" data-duration="200"
class="st1" d="M130.3,260.8c1,0.6,2,1.2,3,1.8c1.1,0.7,2.8,0.3,3.4-0.9c0.6-1.2,0.3-2.7-0.9-3.4c-1-0.6-2-1.2-3-1.8
			c-1.1-0.7-2.8-0.3-3.4,0.9C128.8,258.6,129.1,260.1,130.3,260.8L130.3,260.8z"/>
	</g>
</g>
<g>
	<g>
		<path data-async data-start="0" data-duration="200"
class="st1" d="M140.5,254.5c-0.1,1.4,0.1,2.9,0.5,4.3c0.4,1.2,1.8,2.2,3.1,1.7c1.3-0.4,2.2-1.7,1.7-3.1c-0.1-0.3-0.1-0.5-0.2-0.8
			c0-0.2-0.1-0.3-0.1-0.5c0,0.2,0,0.2,0,0c-0.1-0.6,0-1.1,0-1.7c0.1-1.3-1.2-2.6-2.5-2.5C141.5,252.1,140.6,253.1,140.5,254.5
			L140.5,254.5z"/>
	</g>
</g>
<g>
	<g>
		<path data-async data-start="0" data-duration="200"
class="st1" d="M153.5,263.1c-0.1-0.3-0.1-0.3,0-0.1c0-0.2,0-0.4,0-0.5c0-0.5-0.1,0.1,0.1-0.4c0,0,0.3-0.7,0.1-0.4
			c0.1-0.2,0.2-0.3,0.3-0.5c-0.1,0.2-0.1,0.1,0.1-0.1c0.9-1,1-2.5,0-3.5c-0.9-0.9-2.6-1-3.5,0c-1.7,1.9-2.4,4.3-1.8,6.8
			c0.3,1.3,1.8,2.1,3.1,1.7C153.1,265.8,153.8,264.4,153.5,263.1L153.5,263.1z"/>
	</g>
</g>
<g>
	<g>
		<path data-async data-start="0" data-duration="200"
class="st1" d="M172.8,264.9c0.7,1.9,1.7,3.6,3,5.2c0.9,1,2.6,0.9,3.5,0c1-1,0.9-2.5,0-3.5c-0.6-0.8-1.4-2-1.7-3
			c-0.5-1.3-1.7-2.1-3.1-1.7C173.3,262.1,172.3,263.6,172.8,264.9L172.8,264.9z"/>
	</g>
</g>
<g>
	<g>
		<path data-async data-start="0" data-duration="200"
class="st1" d="M186.4,257.3c0,2.3,0,4.6,0,6.9c0,3.2,5,3.2,5,0c0-2.3,0-4.6,0-6.9C191.4,254.1,186.4,254.1,186.4,257.3L186.4,257.3z"/>
	</g>
</g>
<g>
	<g>
		<path data-async data-start="0" data-duration="200"
class="st1" d="M201.3,271.7c0.2-1.4,0.8-2.6,1.8-3.3c1.1-0.8,1.6-2.2,0.9-3.4c-0.6-1.1-2.3-1.7-3.4-0.9c-2.1,1.6-3.6,3.7-4.1,6.3
			c-0.2,1.3,0.3,2.7,1.7,3.1C199.4,273.8,201.1,273,201.3,271.7L201.3,271.7z"/>
	</g>
</g>
<g>
	<g>
		<path data-async data-start="0" data-duration="200"
class="st1" d="M217.2,90.8c-1.3-4.5-0.4-9.2,3-12.4c1.6-1.5,4.1-3,6.4-3c2.5,0,3.1,1.5,4.7,3c5.1,4.7,10.9,3.7,16.9,6.3
			c3.4,1.5,4,3.5,3.6,6.9c-0.1,0.9-0.4,1.9-0.2,2.9c0.5,2.3,2.4,3.2,4.3,4.2c9.3,4.9,4,14.6-2.2,19.8c-2.5,2.1,1.1,5.6,3.5,3.5
			c6.8-5.8,12.5-15.8,6-24c-1.3-1.6-2.8-2.3-4.4-3.4c-1.6-1.1-1.8-0.9-1.8-3.2c0-1.4,0.4-1.8,0.1-3.3c-0.6-4-3.8-6.9-7.4-8.2
			c-2.5-0.9-5.1-1.2-7.7-1.7c-3.9-0.8-5.8-2-8.4-4.9c-2.7-3.1-5.6-3.6-9.6-2.6c-9.6,2.4-14.4,12.2-11.8,21.4
			C213.2,95.2,218,93.9,217.2,90.8L217.2,90.8z"/>
	</g>
</g>
<g>
	<g>
		<path data-async data-start="0" data-duration="200"
class="st1" d="M171.3,283c-7.9-2.4-3.8-12.1-0.5-16.7c1.7-2.4,3.7-4.7,5.4-7.1c1.6-2.3,2.8-4.9,5.2-6.5c9.4-6.5,24.9,1.8,30.1,10.2
			c2.4,3.9,2.8,7.9,5.9,11.4c2.6,3,2.3,7.1,0.5,10.6c-1.8,3.5-5.1,4.1-8.7,4.2c-6.3,0.3-12.7,0.1-19,0.1c-5.6,0-14.9,1.8-17.7-4.6
			c-1.3-2.9-5.6-0.4-4.3,2.5c2.2,5,7.2,6.8,12.4,7.1c8.1,0.4,16.3,0,24.4-0.1c5.6,0,11.8,0.2,15.8-4.5c3-3.6,5.1-10.6,3.4-15.1
			c-1.2-3.1-4.3-4.4-5.5-7.6c-1-2.8-1.9-5.3-3.6-7.8c-3.5-5-8.8-8.7-14.3-11c-5-2.1-10.6-3.2-16-2.1c-6.1,1.2-9.1,5.1-12.3,10
			c-4,5.9-9.7,11.1-10.5,18.6c-0.7,5.9,2.4,11.4,8.2,13.2C173,288.7,174.4,283.9,171.3,283L171.3,283z"/>
	</g>
</g>
<g>
	<g>
		<path data-async data-start="0" data-duration="200"
class="st1" d="M160.2,255.1c0.7,2.6,0.9,6.6,3.5,8.1c0.3,0.1,0.5,0.3,0.8,0.4c0.9,0.4,0.8,0-0.5-1.3c-0.3,0.2-0.5,1.4-0.5,1.6
			c-0.1,1.4,0.5,2.3,1.6,3.1c2.6,1.9,5.1-2.5,2.5-4.3c-0.1-0.1-0.2-0.1-0.3-0.2c0.4,0.5,0.8,1,1.1,1.5c0,0.5,0,0.5,0.2,0.1
			c0.1-0.3,0.2-0.5,0.3-0.8c0.1-0.4,0.1-0.8,0.1-1.1c-0.1-1.1-0.7-2.1-1.6-2.6c-1.1-0.7-1-0.1-1.3-1.2c-0.4-1.5-0.8-2.9-1.1-4.4
			C164.2,250.7,159.4,252,160.2,255.1L160.2,255.1z"/>
	</g>
</g>
<g>
	<g>
		<path data-async data-start="0" data-duration="200"
class="st1" d="M163.3,252.4c-6.5-11.7-20.9-13.9-32.7-9.8c-5.3,1.8-10.3,4-12.2,9.6c-2,5.7-4.9,13.6-3.8,19.7c0.8,4.8,4,8,8.8,8.6
			c2,0.3,3.5,0,4.4,2.4c0.5,1.3,0,2.9,0.6,4.3c0.7,1.6,1.9,2.6,3.6,3.2c11.8,4.5,27.2-1.7,36.1-9.4c2.4-2.1-1.1-5.6-3.5-3.5
			c-7.5,6.6-17.5,9.9-27.5,8.8c-5.9-0.6-2.9-5.1-5.7-8.5c-2.4-2.9-5.4-1.4-8.5-2.5c-6.1-2.2-2.5-11.2-1.3-15.5
			c0.7-2.5,1.1-5.5,2.6-7.7c1.6-2.5,4.4-3.5,7.1-4.5c9.9-3.8,22.3-2.9,27.9,7.2C160.5,257.7,164.8,255.2,163.3,252.4L163.3,252.4z"
			/>
	</g>
</g>
</svg>
