<?xml version="1.0" encoding="utf-8"?>
<!-- Generator: Adobe Illustrator 23.0.2, SVG Export Plug-In . SVG Version: 6.00 Build 0)  -->
<svg version="1.1" id="Layer_1" xmlns="http://www.w3.org/2000/svg" xmlns:xlink="http://www.w3.org/1999/xlink" x="0px" y="0px"
	 viewBox="0 0 360 360" style="enable-background:new 0 0 360 360;" xml:space="preserve">
<g>
	<g>
		<path data-async data-start="0" data-duration="200"
class="st1" d="M159.7,161.5c-6.2-5.6-13.9-12-22.8-10.3c-2.8,0.5-5.7,2-6.9,4.8c-1.4,3.2,0.5,6.9,1.7,9.9c3.3,7.6,9.3,10.6,17.4,11.3
			c8.8,0.8,12-4.9,11.6-13c-0.2-3.2-5.2-3.2-5,0c0.1,1.9,0.6,5-0.7,6.6c-1.9,2.3-5.9,1.5-8.4,1c-5.7-1-8.8-4.1-10.9-9.4
			c-0.8-2.1-2.1-3.9,0.3-5.7c2-1.5,6-0.6,8.1,0c4.8,1.5,8.5,5,12.1,8.3C158.5,167.2,162.1,163.6,159.7,161.5L159.7,161.5z"/>
	</g>
</g>
<g>
	<g>
		<path data-async data-start="0" data-duration="200"
class="st1" d="M215.8,167.4c-0.6-3,10.2-8.2,12.5-9.2c5.1-2.2,10.6-1.5,10.5,5.3c-0.1,5.2-2.1,8.9-7.4,9.8c-5,0.9-14.8,1.5-15-5.7
			c-0.1-3.2-5.1-3.2-5,0c0.4,10.2,11.2,11.8,19.3,10.9c9-1.1,13-6.7,13-15.6c0-8.2-6.9-12.5-14.6-10.3c-5,1.4-9.7,4.6-13.8,7.8
			c-3,2.3-5.2,4.5-4.5,8.4C211.6,171.9,216.4,170.5,215.8,167.4L215.8,167.4z"/>
	</g>
</g>
<g>
	<g>
		<path data-async data-start="0" data-duration="200"
class="st1" d="M169,150c4.9-2.7,12.5-1.9,17.9-1.6c6.2,0.4,12.1,1.7,17.2,5.4c2.6,1.9,5.1-2.5,2.5-4.3c-5.8-4.2-12.6-5.7-19.7-6.1
			c-6.5-0.4-14.5-1-20.4,2.2C163.6,147.2,166.1,151.5,169,150L169,150z"/>
	</g>
</g>
<g>
	<g>
		<path data-async data-start="0" data-duration="200"
class="st1" d="M150.4,135.7c11-4.7,25-7.2,37-6.9c6.3,0.1,11.6,2.9,16.9,5.9c5.6,3.1,11.2,6.2,16.8,9.3c2.8,1.6,5.3-2.8,2.5-4.3
			c-6.6-3.6-13.1-7.4-19.8-10.9c-5.2-2.7-10.6-4.9-16.5-5c-13-0.1-27.6,2.5-39.5,7.6C144.9,132.7,147.5,137,150.4,135.7L150.4,135.7
			z"/>
	</g>
</g>
<g>
	<g>
		<path data-async data-start="0" data-duration="200"
class="st1" d="M132.6,124.2c14-11.4,35.3-10.1,52.4-10.2c10-0.1,20,0.4,29.7,2.7c8.1,2,20.5,5.7,21.7,15.7c0.4,3.2,5.4,3.2,5,0
			c-2.5-21.3-34.9-23.1-51-23.4c-20-0.4-44.9-1.7-61.3,11.6C126.5,122.7,130.1,126.3,132.6,124.2L132.6,124.2z"/>
	</g>
</g>
<g>
	<g>
		<path data-async data-start="0" data-duration="200"
class="st1" d="M125.9,89.9c21.5-8.4,44.7-9.3,67.5-8.7c22.1,0.6,44.7,3.3,64.2,14.5c2.8,1.6,5.3-2.7,2.5-4.3
			c-19.8-11.3-42.5-14.4-65-15.1c-23.7-0.8-48.2,0.1-70.6,8.8C121.6,86.2,122.9,91.1,125.9,89.9L125.9,89.9z"/>
	</g>
</g>
<g>
	<g>
		<path data-async data-start="0" data-duration="200"
class="st1" d="M260.3,95.5c4.2-7.8,12.2-11.8,20.2-15c9.6-3.9,19-6.8,29.5-6.8c3.2,0,3.2-5,0-5c-11.7,0.1-22.4,3.5-33.1,8
			c-8.4,3.5-16.4,8.1-20.9,16.4C254.4,95.8,258.7,98.3,260.3,95.5L260.3,95.5z"/>
	</g>
</g>
<g>
	<g>
		<path data-async data-start="0" data-duration="200"
class="st1" d="M310.9,71.5c1.8,24.3,2.8,50.1-9,72.4c-1.5,2.8,2.8,5.4,4.3,2.5c12.3-23.1,11.5-49.6,9.7-74.9
			C315.7,68.4,310.7,68.3,310.9,71.5L310.9,71.5z"/>
	</g>
</g>
<g>
	<g>
		<path data-async data-start="0" data-duration="200"
class="st1" d="M124.8,88.7c-1.2-12.5-10.8-20.5-21.8-25c-13.9-5.7-29.1-8-44.1-7.3c-3.2,0.1-3.2,5.1,0,5c12.3-0.6,24.6,0.9,36.3,4.8
			c10.8,3.5,23.4,9.8,24.6,22.5C120.1,91.9,125.1,91.9,124.8,88.7L124.8,88.7z"/>
	</g>
</g>
<g>
	<g>
		<path data-async data-start="0" data-duration="200"
class="st1" d="M53.3,57.2c-3.9,15.1-2,30.1,3.9,44.5c5.1,12.5,11.9,25.3,23.5,32.8c2.7,1.8,5.2-2.6,2.5-4.3c-10.9-7-17.3-19.8-21.9-31.5
			c-5.1-13-6.8-26.5-3.3-40.1C58.9,55.5,54.1,54.1,53.3,57.2L53.3,57.2z"/>
	</g>
</g>
<g>
	<g>
		<path data-async data-start="0" data-duration="200"
class="st1" d="M168.8,210.4c4.4-3,9.6-6.5,15-7.2c6.5-0.8,12.5,2.5,17.7,6c2.7,1.8,5.2-2.5,2.5-4.3c-5.8-3.9-12.5-7.3-19.7-6.8
			c-6.6,0.5-12.8,4.4-18.1,8C163.6,207.9,166.1,212.2,168.8,210.4L168.8,210.4z"/>
	</g>
</g>
<g>
	<g>
		<path data-async data-start="0" data-duration="200"
class="st1" d="M203.4,206.3c-6.1,4.1-11.6,9-16.3,14.7c-2,2.5,1.5,6,3.5,3.5c4.4-5.4,9.5-10,15.3-13.9
			C208.5,208.8,206,204.5,203.4,206.3L203.4,206.3z"/>
	</g>
</g>
<g>
	<g>
		<path data-async data-start="0" data-duration="200"
class="st1" d="M165.2,212.6c8,2.8,13.7,7.5,20.3,12.7c2.5,2,6.1-1.6,3.5-3.5c-7.3-5.7-13.7-10.8-22.5-13.9
			C163.5,206.7,162.2,211.5,165.2,212.6L165.2,212.6z"/>
	</g>
</g>
<g>
	<g>
		<path data-async data-start="0" data-duration="200"
class="st1" d="M185.3,224.8c-0.5,8.2-2.4,19.7,2.7,26.9c2.2,3.1,5.3,4.2,8.8,5.2c5.2,1.5,10.5,3.2,15.8,4.3c7.5,1.6,16,1.3,21-5.4
			c4.4-5.9,4.3-13.8,1.5-20.3c-1.3-2.9-5.6-0.4-4.3,2.5c2.2,5.1,2,12.1-2.3,16.1c-5.7,5.4-14.6,2.3-21.2,0.5
			c-5.7-1.6-14.6-2.2-16.6-8.8c-2-6.5-0.8-14.5-0.4-21.1C190.5,221.5,185.5,221.6,185.3,224.8L185.3,224.8z"/>
	</g>
</g>
<g>
	<g>
		<path data-async data-start="0" data-duration="200"
class="st1" d="M181.7,246.4c1.2,3.4-2.4,8-5.1,9.7c-3.8,2.5-8,0.6-11.9-0.4c-6-1.6-16.2-4-12-12.6c1.4-2.9-2.9-5.4-4.3-2.5
			c-2.1,4.3-2,9.2,0.8,13.2c3.5,5.1,10.5,5.8,16,7.3c5.8,1.6,11.2,2.5,15.9-2c3.7-3.4,7.2-8.9,5.5-14
			C185.5,242,180.7,243.3,181.7,246.4L181.7,246.4z"/>
	</g>
</g>
<g>
	<g>
		<path data-async data-start="0" data-duration="200"
class="st1" d="M121.5,184.3c-2.7,0.5-3.2,2.9-3.6,5.2c-0.6,3.6-1.4,7.4-1.4,11.1c-0.1,8.2,5.8,15.4,9.8,22.1c1.7,2.8,6,0.2,4.3-2.5
			c-2.8-4.7-6.9-9.8-8.5-15.2c-0.9-3.1-0.5-6-0.1-9.1c0.1-0.6,0.8-6.8,0.8-6.8C126,188.5,124.6,183.7,121.5,184.3L121.5,184.3z"/>
	</g>
</g>
<g>
	<g>
		<path data-async data-start="0" data-duration="200"
class="st1" d="M102.3,234.1c-11-4.1-13.1-17.1-14.1-27.3c-1.1-11.2,0.7-21.5,7.1-30.9c1.8-2.7-2.5-5.2-4.3-2.5
			c-8,11.8-9.1,24.7-7.2,38.5c1.5,11.3,5.7,22.7,17.2,27C104,240.1,105.3,235.2,102.3,234.1L102.3,234.1z"/>
	</g>
</g>
<g>
	<g>
		<path data-async data-start="0" data-duration="200"
class="st1" d="M79.8,135.1C66,143.8,54.4,155.7,46.5,170c-4,7.3-7.4,15.3-9.1,23.4c-2,9.5-0.7,19.2,0,28.7c0.2,2.2,2.6,3.3,4.3,1.8
			c6.5-5.9,13.1-11.6,19.9-17.2c-1.4-0.6-2.8-1.2-4.3-1.8c-1.8,14.4-2.7,28.8-2.4,43.3c0.1,6.8,0.4,13.7,1.1,20.4
			c0.5,4.8,1.7,9.1,5.1,12.6c1,1.1,3.2,0.9,3.9-0.5c5.6-11.9,14.3-21.7,23-31.4c-1.4-0.4-2.8-0.7-4.2-1.1c1.3,7.7,0.1,15.5,0.6,23.3
			c0.4,5.9,1.7,11.6,3.9,17.1c4.4,10.9,12.1,19.9,22.1,26.2c1.6,1,3.9-0.3,3.8-2.2c-0.3-4.9-0.4-10,1.9-14.5c2-3.7,5.1-6.7,8.1-9.7
			c6.6-6.5,13.3-13,20-19.5c2.3-2.2-1.2-5.8-3.5-3.5c-7.8,7.6-16.1,15-23.6,23c-6.6,7.1-8.5,14.5-8,24.1c1.3-0.7,2.5-1.4,3.8-2.2
			c-9.9-6.3-17.5-15.8-21.2-27c-3.9-12-1-24.3-3.1-36.5c-0.3-1.8-3-2.4-4.2-1.1c-9,10-18,20.1-23.8,32.4c1.3-0.2,2.6-0.3,3.9-0.5
			c-4.1-4.4-3.9-11.3-4.2-17c-0.4-6.1-0.6-12.2-0.6-18.3c0-12.5,0.9-25.1,2.4-37.5c0.3-2.4-2.8-3-4.3-1.8
			c-6.7,5.6-13.4,11.3-19.9,17.2c1.4,0.6,2.8,1.2,4.3,1.8c-0.6-8.7-2-17.8-0.4-26.4c1.5-8.1,4.8-16,8.8-23.2
			c7.5-13.5,18.4-24.9,31.5-33.1C85,137.7,82.5,133.4,79.8,135.1L79.8,135.1z"/>
	</g>
</g>
<g>
	<g>
		<path data-async data-start="0" data-duration="200"
class="st1" d="M157,273.1c2.8,5.1,6.2,10.6,11.8,12.9c6.8,2.7,15.3,0.8,22.4,1c6.3,0.2,14.3,3.7,20.4,1.3c6.2-2.5,7.3-11.1,9.2-16.7
			c1-3.1-3.8-4.4-4.8-1.3c-0.9,2.8-1.7,5.8-2.8,8.5c-1.7,4.1-3.8,5.6-8.2,5c-5.2-0.7-10.1-1.8-15.5-1.8c-5.2-0.1-10.5,0.7-15.6,0.1
			c-6.4-0.7-9.7-6.4-12.5-11.5C159.7,267.7,155.4,270.3,157,273.1L157,273.1z"/>
	</g>
</g>
<g>
	<g>
		<path data-async data-start="0" data-duration="200"
class="st1" d="M301.9,150.9c11.1,9.8,16.5,22.8,18.6,37.3c1,6.9,1.3,13.8,1.6,20.8c0.3,7.4,0.6,15-2.9,21.7c1.4,0,2.9,0,4.3,0
			c-3.4-6.3-8.2-11.2-14.5-14.6c-1.5-0.8-4,0.2-3.8,2.2c1.1,11.5,2.6,23.1,3.2,34.7c0.6,11.2-1.3,23.8-12.2,29.5c1,0.1,2,0.3,3,0.4
			c-4.2-3.7-4.7-11.1-8.1-15.6c-3.5-4.7-8.2-7.9-13.6-9.9c-1.5-0.6-3.2,0.9-3.2,2.4c0.7,20.2-1.5,42.2-18,56.1
			c1.4,0.4,2.8,0.7,4.2,1.1c-4.4-17.1-14.3-32.3-28.2-43.1c-2.5-1.9-6.1,1.6-3.5,3.5c13.4,10.3,22.8,24.5,27,40.9
			c0.5,2,2.8,2.3,4.2,1.1c17.5-14.6,20.3-38.2,19.5-59.6c-1.1,0.8-2.1,1.6-3.2,2.4c5.8,2.1,10.6,6.3,13.3,11.8
			c2.1,4.3,2.5,9.1,6.3,12.5c0.9,0.8,2,0.9,3,0.4c9.8-5.1,14.1-15.7,14.7-26.3c0.8-13.9-1.9-28.4-3.3-42.2c-1.3,0.7-2.5,1.4-3.8,2.2
			c5.6,3,9.7,7.2,12.7,12.8c0.9,1.6,3.5,1.6,4.3,0c3.4-6.6,4-13.6,3.8-20.9c-0.2-8.3-0.7-16.6-1.8-24.8c-2.2-15.5-8-29.7-19.9-40.2
			C303,145.3,299.4,148.8,301.9,150.9L301.9,150.9z"/>
	</g>
</g>
<g>
	<g>
		<path data-async data-start="0" data-duration="200"
class="st1" d="M254.5,180.4c10,15.8,8.6,35.8-3.7,50c-2.1,2.4,1.4,6,3.5,3.5c13.8-15.8,15.7-38.2,4.5-56
			C257.1,175.2,252.7,177.7,254.5,180.4L254.5,180.4z"/>
	</g>
</g>
<g>
	<g>
		<path d="M274.6,152.5c8.5,15.6,16.7,34.4,17.2,52.4c0.3,9.4-3,17.1-9.1,24.1c-4.9,5.6-10.3,10.6-14,17.1c-1.6,2.8,2.7,5.3,4.3,2.5
			c4.2-7.4,10.9-12.8,16-19.5c5.5-7.1,8.1-15.3,7.8-24.3c-0.5-19-8.9-38.5-17.9-54.9C277.4,147.2,273.1,149.7,274.6,152.5
			L274.6,152.5z"/>
	</g>
</g>
</svg>
